<svg xmlns="http://www.w3.org/2000/svg" xmlns:xlink="http://www.w3.org/1999/xlink" width="1000" zoomAndPan="magnify" viewBox="0 0 750 809.999993" height="1080" preserveAspectRatio="xMidYMid meet" version="1.0"><defs><clipPath id="78817b6df0"><path d="M 116 657.234375 L 633.589844 657.234375 L 633.589844 732.847656 L 116 732.847656 Z M 116 657.234375 " clip-rule="nonzero"/></clipPath><clipPath id="014ef1ec2f"><path d="M 633.589844 694.847656 C 633.589844 704.820312 629.628906 714.386719 622.574219 721.441406 C 615.519531 728.496094 605.953125 732.457031 595.980469 732.457031 L 153.996094 732.457031 C 144.019531 732.457031 134.453125 728.496094 127.402344 721.441406 C 120.347656 714.386719 116.386719 704.820312 116.386719 694.847656 C 116.386719 684.871094 120.347656 675.304688 127.402344 668.25 C 134.453125 661.199219 144.019531 657.234375 153.996094 657.234375 L 595.980469 657.234375 C 605.953125 657.234375 615.519531 661.199219 622.574219 668.25 C 629.628906 675.304688 633.589844 684.871094 633.589844 694.847656 " clip-rule="nonzero"/></clipPath><clipPath id="354a77e62d"><path d="M 116.40625 76.589844 L 634 76.589844 L 634 152.199219 L 116.40625 152.199219 Z M 116.40625 76.589844 " clip-rule="nonzero"/></clipPath><clipPath id="5666c839d3"><path d="M 116.40625 114.589844 C 116.40625 104.613281 120.367188 95.046875 127.421875 87.996094 C 134.476562 80.941406 144.042969 76.980469 154.015625 76.980469 L 596 76.980469 C 605.976562 76.980469 615.542969 80.941406 622.59375 87.996094 C 629.648438 95.046875 633.613281 104.613281 633.613281 114.589844 C 633.613281 124.5625 629.648438 134.128906 622.59375 141.183594 C 615.542969 148.238281 605.976562 152.199219 596 152.199219 L 154.015625 152.199219 C 144.042969 152.199219 134.476562 148.238281 127.421875 141.183594 C 120.367188 134.128906 116.40625 124.5625 116.40625 114.589844 " clip-rule="nonzero"/></clipPath><clipPath id="c5244d1d2e"><path d="M 327.847656 12.824219 L 403.460938 12.824219 L 403.460938 795 L 327.847656 795 Z M 327.847656 12.824219 " clip-rule="nonzero"/></clipPath><clipPath id="b23523af2f"><path d="M 365.4375 12.824219 C 375.410156 12.824219 384.96875 16.78125 392.019531 23.832031 C 399.070312 30.882812 403.03125 40.445312 403.03125 50.414062 L 403.03125 759.585938 C 403.03125 769.554688 399.070312 779.117188 392.019531 786.167969 C 384.96875 793.21875 375.410156 797.175781 365.4375 797.175781 C 355.46875 797.175781 345.90625 793.21875 338.859375 786.167969 C 331.808594 779.117188 327.847656 769.554688 327.847656 759.585938 L 327.847656 50.414062 C 327.847656 40.445312 331.808594 30.882812 338.859375 23.832031 C 345.90625 16.78125 355.46875 12.824219 365.4375 12.824219 " clip-rule="nonzero"/></clipPath><clipPath id="2269399c52"><path d="M 116.398438 474.769531 L 192 474.769531 L 192 733 L 116.398438 733 Z M 116.398438 474.769531 " clip-rule="nonzero"/></clipPath><clipPath id="8a65232e5d"><path d="M 153.988281 474.769531 C 163.957031 474.769531 173.519531 478.730469 180.570312 485.777344 C 187.621094 492.828125 191.578125 502.390625 191.578125 512.359375 L 191.578125 694.875 C 191.578125 704.84375 187.621094 714.40625 180.570312 721.457031 C 173.519531 728.503906 163.957031 732.464844 153.988281 732.464844 C 144.019531 732.464844 134.457031 728.503906 127.40625 721.457031 C 120.359375 714.40625 116.398438 704.84375 116.398438 694.875 L 116.398438 512.359375 C 116.398438 502.390625 120.359375 492.828125 127.40625 485.777344 C 134.457031 478.730469 144.019531 474.769531 153.988281 474.769531 " clip-rule="nonzero"/></clipPath><clipPath id="faa5277917"><path d="M 558 76.164062 L 633.59375 76.164062 L 633.59375 336.601562 L 558 336.601562 Z M 558 76.164062 " clip-rule="nonzero"/></clipPath><clipPath id="b9d8369d3f"><path d="M 596.003906 336.601562 C 586.03125 336.601562 576.46875 332.644531 569.421875 325.59375 C 562.371094 318.542969 558.410156 308.980469 558.410156 299.011719 L 558.410156 114.5625 C 558.410156 104.59375 562.371094 95.03125 569.421875 87.984375 C 576.46875 80.933594 586.03125 76.972656 596.003906 76.972656 C 605.972656 76.972656 615.535156 80.933594 622.582031 87.984375 C 629.632812 95.03125 633.59375 104.59375 633.59375 114.5625 L 633.59375 299.011719 C 633.59375 308.980469 629.632812 318.542969 622.582031 325.59375 C 615.535156 332.644531 605.972656 336.601562 596.003906 336.601562 " clip-rule="nonzero"/></clipPath><clipPath id="36a9b458c9"><path d="M 116.398438 76.992188 L 192 76.992188 L 192 443 L 116.398438 443 Z M 116.398438 76.992188 " clip-rule="nonzero"/></clipPath><clipPath id="0b2e9d8018"><path d="M 153.988281 76.992188 C 163.957031 76.992188 173.519531 80.953125 180.570312 88 C 187.621094 95.050781 191.578125 104.613281 191.578125 114.582031 L 191.578125 405.019531 C 191.578125 414.988281 187.621094 424.550781 180.570312 431.601562 C 173.519531 438.648438 163.957031 442.609375 153.988281 442.609375 C 144.019531 442.609375 134.457031 438.648438 127.40625 431.601562 C 120.359375 424.550781 116.398438 414.988281 116.398438 405.019531 L 116.398438 114.582031 C 116.398438 104.613281 120.359375 95.050781 127.40625 88 C 134.457031 80.953125 144.019531 76.992188 153.988281 76.992188 " clip-rule="nonzero"/></clipPath><clipPath id="812c527922"><path d="M 116.40625 367 L 634 367 L 634 442.597656 L 116.40625 442.597656 Z M 116.40625 367 " clip-rule="nonzero"/></clipPath><clipPath id="3ef8eb0089"><path d="M 116.40625 404.988281 C 116.40625 395.011719 120.367188 385.445312 127.421875 378.394531 C 134.476562 371.339844 144.042969 367.378906 154.015625 367.378906 L 596 367.378906 C 605.976562 367.378906 615.542969 371.339844 622.59375 378.394531 C 629.648438 385.445312 633.613281 395.011719 633.613281 404.988281 C 633.613281 414.960938 629.648438 424.527344 622.59375 431.582031 C 615.542969 438.636719 605.976562 442.597656 596 442.597656 L 154.015625 442.597656 C 144.042969 442.597656 134.476562 438.636719 127.421875 431.582031 C 120.367188 424.527344 116.40625 414.960938 116.40625 404.988281 " clip-rule="nonzero"/></clipPath><clipPath id="9515d25c4c"><path d="M 558 371 L 633.59375 371 L 633.59375 732.453125 L 558 732.453125 Z M 558 371 " clip-rule="nonzero"/></clipPath><clipPath id="199357b348"><path d="M 596.003906 732.453125 C 586.03125 732.453125 576.46875 728.492188 569.421875 721.441406 C 562.371094 714.394531 558.410156 704.832031 558.410156 694.863281 L 558.410156 404.96875 C 558.410156 394.996094 562.371094 385.4375 569.421875 378.386719 C 576.46875 371.335938 586.03125 367.375 596.003906 367.375 C 605.972656 367.375 615.535156 371.335938 622.582031 378.386719 C 629.632812 385.4375 633.59375 394.996094 633.59375 404.96875 L 633.59375 694.863281 C 633.59375 704.832031 629.632812 714.394531 622.582031 721.441406 C 615.535156 728.492188 605.972656 732.453125 596.003906 732.453125 " clip-rule="nonzero"/></clipPath></defs><g clip-path="url(#78817b6df0)"><g clip-path="url(#014ef1ec2f)"><path fill="#000000" d="M 633.589844 657.234375 L 633.589844 732.847656 L 112.710938 732.847656 L 112.710938 657.234375 Z M 633.589844 657.234375 " fill-opacity="1" fill-rule="nonzero"/></g></g><g clip-path="url(#354a77e62d)"><g clip-path="url(#5666c839d3)"><path fill="#000000" d="M 116.40625 152.199219 L 116.40625 76.589844 L 637.285156 76.589844 L 637.285156 152.199219 Z M 116.40625 152.199219 " fill-opacity="1" fill-rule="nonzero"/></g></g><g clip-path="url(#c5244d1d2e)"><g clip-path="url(#b23523af2f)"><path fill="#f1b617" d="M 327.847656 12.824219 L 403.460938 12.824219 L 403.460938 794.136719 L 327.847656 794.136719 Z M 327.847656 12.824219 " fill-opacity="1" fill-rule="nonzero"/></g></g><g clip-path="url(#2269399c52)"><g clip-path="url(#8a65232e5d)"><path fill="#000000" d="M 116.398438 474.769531 L 192.007812 474.769531 L 192.007812 735.207031 L 116.398438 735.207031 Z M 116.398438 474.769531 " fill-opacity="1" fill-rule="nonzero"/></g></g><g clip-path="url(#faa5277917)"><g clip-path="url(#b9d8369d3f)"><path fill="#000000" d="M 633.59375 336.601562 L 557.980469 336.601562 L 557.980469 76.164062 L 633.59375 76.164062 Z M 633.59375 336.601562 " fill-opacity="1" fill-rule="nonzero"/></g></g><g clip-path="url(#36a9b458c9)"><g clip-path="url(#0b2e9d8018)"><path fill="#000000" d="M 116.398438 76.992188 L 192.007812 76.992188 L 192.007812 446.644531 L 116.398438 446.644531 Z M 116.398438 76.992188 " fill-opacity="1" fill-rule="nonzero"/></g></g><g clip-path="url(#812c527922)"><g clip-path="url(#3ef8eb0089)"><path fill="#000000" d="M 116.40625 442.597656 L 116.40625 366.988281 L 637.285156 366.988281 L 637.285156 442.597656 Z M 116.40625 442.597656 " fill-opacity="1" fill-rule="nonzero"/></g></g><g clip-path="url(#9515d25c4c)"><g clip-path="url(#199357b348)"><path fill="#000000" d="M 633.59375 732.453125 L 557.980469 732.453125 L 557.980469 371.199219 L 633.59375 371.199219 Z M 633.59375 732.453125 " fill-opacity="1" fill-rule="nonzero"/></g></g></svg>