<svg xmlns="http://www.w3.org/2000/svg" xmlns:xlink="http://www.w3.org/1999/xlink" width="1000" zoomAndPan="magnify" viewBox="0 0 750 809.999993" height="1080" preserveAspectRatio="xMidYMid meet" version="1.0"><defs><clipPath id="1eaf5725ee"><path d="M 117 656.148438 L 632.476562 656.148438 L 632.476562 731.433594 L 117 731.433594 Z M 117 656.148438 " clip-rule="nonzero"/></clipPath><clipPath id="529d48f51d"><path d="M 632.476562 693.597656 C 632.476562 703.53125 628.53125 713.054688 621.507812 720.078125 C 614.484375 727.101562 604.960938 731.046875 595.027344 731.046875 L 154.949219 731.046875 C 145.015625 731.046875 135.492188 727.101562 128.46875 720.078125 C 121.445312 713.054688 117.5 703.53125 117.5 693.597656 C 117.5 683.667969 121.445312 674.140625 128.46875 667.117188 C 135.492188 660.09375 145.015625 656.148438 154.949219 656.148438 L 595.027344 656.148438 C 604.960938 656.148438 614.484375 660.09375 621.507812 667.117188 C 628.53125 674.140625 632.476562 683.667969 632.476562 693.597656 " clip-rule="nonzero"/></clipPath><clipPath id="d0b3b453a1"><path d="M 117.519531 78.003906 L 633 78.003906 L 633 153.289062 L 117.519531 153.289062 Z M 117.519531 78.003906 " clip-rule="nonzero"/></clipPath><clipPath id="c7e0ab7be8"><path d="M 117.519531 115.839844 C 117.519531 105.90625 121.464844 96.382812 128.488281 89.359375 C 135.511719 82.335938 145.035156 78.390625 154.96875 78.390625 L 595.050781 78.390625 C 604.980469 78.390625 614.507812 82.335938 621.527344 89.359375 C 628.550781 96.382812 632.496094 105.90625 632.496094 115.839844 C 632.496094 125.773438 628.550781 135.296875 621.527344 142.320312 C 614.507812 149.34375 604.980469 153.289062 595.050781 153.289062 L 154.96875 153.289062 C 145.035156 153.289062 135.511719 149.34375 128.488281 142.320312 C 121.464844 135.296875 117.519531 125.773438 117.519531 115.839844 " clip-rule="nonzero"/></clipPath><clipPath id="66be90dc48"><path d="M 328.050781 14.511719 L 403 14.511719 L 403 793 L 328.050781 793 Z M 328.050781 14.511719 " clip-rule="nonzero"/></clipPath><clipPath id="f153c3ccb8"><path d="M 365.480469 14.511719 C 375.40625 14.511719 384.925781 18.457031 391.945312 25.476562 C 398.964844 32.492188 402.910156 42.015625 402.910156 51.941406 L 402.910156 758.058594 C 402.910156 767.984375 398.964844 777.507812 391.945312 784.527344 C 384.925781 791.542969 375.40625 795.488281 365.480469 795.488281 C 355.554688 795.488281 346.035156 791.542969 339.015625 784.527344 C 331.996094 777.507812 328.050781 767.984375 328.050781 758.058594 L 328.050781 51.941406 C 328.050781 42.015625 331.996094 32.492188 339.015625 25.476562 C 346.035156 18.457031 355.554688 14.511719 365.480469 14.511719 " clip-rule="nonzero"/></clipPath><clipPath id="c718c20006"><path d="M 117.511719 474.46875 L 192.796875 474.46875 L 192.796875 732 L 117.511719 732 Z M 117.511719 474.46875 " clip-rule="nonzero"/></clipPath><clipPath id="4af30add85"><path d="M 154.941406 474.46875 C 164.867188 474.46875 174.386719 478.414062 181.40625 485.429688 C 188.425781 492.449219 192.371094 501.972656 192.371094 511.898438 L 192.371094 693.625 C 192.371094 703.554688 188.425781 713.074219 181.40625 720.09375 C 174.386719 727.113281 164.867188 731.054688 154.941406 731.054688 C 145.015625 731.054688 135.492188 727.113281 128.472656 720.09375 C 121.453125 713.074219 117.511719 703.554688 117.511719 693.625 L 117.511719 511.898438 C 117.511719 501.972656 121.453125 492.449219 128.472656 485.429688 C 135.492188 478.414062 145.015625 474.46875 154.941406 474.46875 " clip-rule="nonzero"/></clipPath><clipPath id="6b2efd46cb"><path d="M 557.195312 78 L 632.480469 78 L 632.480469 336.898438 L 557.195312 336.898438 Z M 557.195312 78 " clip-rule="nonzero"/></clipPath><clipPath id="cb53134735"><path d="M 595.050781 336.898438 C 585.125 336.898438 575.601562 332.953125 568.582031 325.933594 C 561.5625 318.914062 557.621094 309.394531 557.621094 299.46875 L 557.621094 115.816406 C 557.621094 105.886719 561.5625 96.367188 568.582031 89.347656 C 575.601562 82.328125 585.125 78.386719 595.050781 78.386719 C 604.976562 78.386719 614.496094 82.328125 621.515625 89.347656 C 628.535156 96.367188 632.480469 105.886719 632.480469 115.816406 L 632.480469 299.46875 C 632.480469 309.394531 628.535156 318.914062 621.515625 325.933594 C 614.496094 332.953125 604.976562 336.898438 595.050781 336.898438 " clip-rule="nonzero"/></clipPath><clipPath id="becc33e250"><path d="M 117.511719 78.402344 L 192.796875 78.402344 L 192.796875 443 L 117.511719 443 Z M 117.511719 78.402344 " clip-rule="nonzero"/></clipPath><clipPath id="be5c4eb519"><path d="M 154.941406 78.402344 C 164.867188 78.402344 174.386719 82.347656 181.40625 89.367188 C 188.425781 96.386719 192.371094 105.90625 192.371094 115.832031 L 192.371094 405.019531 C 192.371094 414.945312 188.425781 424.464844 181.40625 431.484375 C 174.386719 438.503906 164.867188 442.449219 154.941406 442.449219 C 145.015625 442.449219 135.492188 438.503906 128.472656 431.484375 C 121.453125 424.464844 117.511719 414.945312 117.511719 405.019531 L 117.511719 115.832031 C 117.511719 105.90625 121.453125 96.386719 128.472656 89.367188 C 135.492188 82.347656 145.015625 78.402344 154.941406 78.402344 " clip-rule="nonzero"/></clipPath><clipPath id="063e0b7067"><path d="M 117.519531 367.152344 L 633 367.152344 L 633 442.4375 L 117.519531 442.4375 Z M 117.519531 367.152344 " clip-rule="nonzero"/></clipPath><clipPath id="25078be324"><path d="M 117.519531 404.988281 C 117.519531 395.054688 121.464844 385.53125 128.488281 378.507812 C 135.511719 371.484375 145.035156 367.539062 154.96875 367.539062 L 595.050781 367.539062 C 604.980469 367.539062 614.507812 371.484375 621.527344 378.507812 C 628.550781 385.53125 632.496094 395.054688 632.496094 404.988281 C 632.496094 414.917969 628.550781 424.445312 621.527344 431.46875 C 614.507812 438.492188 604.980469 442.4375 595.050781 442.4375 L 154.96875 442.4375 C 145.035156 442.4375 135.511719 438.492188 128.488281 431.46875 C 121.464844 424.445312 117.519531 414.917969 117.519531 404.988281 " clip-rule="nonzero"/></clipPath><clipPath id="7df5d418ea"><path d="M 557.195312 371 L 632.480469 371 L 632.480469 731.042969 L 557.195312 731.042969 Z M 557.195312 371 " clip-rule="nonzero"/></clipPath><clipPath id="75b5ffc450"><path d="M 595.050781 731.042969 C 585.125 731.042969 575.601562 727.097656 568.582031 720.078125 C 561.5625 713.058594 557.621094 703.539062 557.621094 693.613281 L 557.621094 404.96875 C 557.621094 395.042969 561.5625 385.519531 568.582031 378.5 C 575.601562 371.480469 585.125 367.539062 595.050781 367.539062 C 604.976562 367.539062 614.496094 371.480469 621.515625 378.5 C 628.535156 385.519531 632.480469 395.042969 632.480469 404.96875 L 632.480469 693.613281 C 632.480469 703.539062 628.535156 713.058594 621.515625 720.078125 C 614.496094 727.097656 604.976562 731.042969 595.050781 731.042969 " clip-rule="nonzero"/></clipPath></defs><g clip-path="url(#1eaf5725ee)"><g clip-path="url(#529d48f51d)"><path fill="#000000" d="M 632.476562 656.148438 L 632.476562 731.433594 L 113.84375 731.433594 L 113.84375 656.148438 Z M 632.476562 656.148438 " fill-opacity="1" fill-rule="nonzero"/></g></g><g clip-path="url(#d0b3b453a1)"><g clip-path="url(#c7e0ab7be8)"><path fill="#000000" d="M 117.519531 153.289062 L 117.519531 78.003906 L 636.152344 78.003906 L 636.152344 153.289062 Z M 117.519531 153.289062 " fill-opacity="1" fill-rule="nonzero"/></g></g><g clip-path="url(#66be90dc48)"><g clip-path="url(#f153c3ccb8)"><path fill="#ffffff" d="M 328.050781 14.511719 L 403.335938 14.511719 L 403.335938 792.460938 L 328.050781 792.460938 Z M 328.050781 14.511719 " fill-opacity="1" fill-rule="nonzero"/></g></g><g clip-path="url(#c718c20006)"><g clip-path="url(#4af30add85)"><path fill="#000000" d="M 117.511719 474.46875 L 192.796875 474.46875 L 192.796875 733.785156 L 117.511719 733.785156 Z M 117.511719 474.46875 " fill-opacity="1" fill-rule="nonzero"/></g></g><g clip-path="url(#6b2efd46cb)"><g clip-path="url(#cb53134735)"><path fill="#000000" d="M 632.480469 336.898438 L 557.195312 336.898438 L 557.195312 77.582031 L 632.480469 77.582031 Z M 632.480469 336.898438 " fill-opacity="1" fill-rule="nonzero"/></g></g><g clip-path="url(#becc33e250)"><g clip-path="url(#be5c4eb519)"><path fill="#000000" d="M 117.511719 78.402344 L 192.796875 78.402344 L 192.796875 446.464844 L 117.511719 446.464844 Z M 117.511719 78.402344 " fill-opacity="1" fill-rule="nonzero"/></g></g><g clip-path="url(#063e0b7067)"><g clip-path="url(#25078be324)"><path fill="#000000" d="M 117.519531 442.4375 L 117.519531 367.152344 L 636.152344 367.152344 L 636.152344 442.4375 Z M 117.519531 442.4375 " fill-opacity="1" fill-rule="nonzero"/></g></g><g clip-path="url(#7df5d418ea)"><g clip-path="url(#75b5ffc450)"><path fill="#000000" d="M 632.480469 731.042969 L 557.195312 731.042969 L 557.195312 371.34375 L 632.480469 371.34375 Z M 632.480469 731.042969 " fill-opacity="1" fill-rule="nonzero"/></g></g></svg>