<svg xmlns="http://www.w3.org/2000/svg" xmlns:xlink="http://www.w3.org/1999/xlink" width="1000" zoomAndPan="magnify" viewBox="0 0 750 809.999993" height="1080" preserveAspectRatio="xMidYMid meet" version="1.0"><defs><clipPath id="287cd7e4be"><path d="M 115 657.824219 L 634.195312 657.824219 L 634.195312 733.613281 L 115 733.613281 Z M 115 657.824219 " clip-rule="nonzero"/></clipPath><clipPath id="1eea83c015"><path d="M 634.195312 695.523438 C 634.195312 705.523438 630.222656 715.109375 623.152344 722.179688 C 616.082031 729.25 606.496094 733.222656 596.496094 733.222656 L 153.480469 733.222656 C 143.480469 733.222656 133.890625 729.25 126.824219 722.179688 C 119.753906 715.109375 115.78125 705.523438 115.78125 695.523438 C 115.78125 685.527344 119.753906 675.9375 126.824219 668.867188 C 133.890625 661.796875 143.480469 657.824219 153.480469 657.824219 L 596.496094 657.824219 C 606.496094 657.824219 616.082031 661.796875 623.152344 668.867188 C 630.222656 675.9375 634.195312 685.527344 634.195312 695.523438 " clip-rule="nonzero"/></clipPath><clipPath id="1d5f6a65bb"><path d="M 115.800781 76 L 635 76 L 635 151.609375 L 115.800781 151.609375 Z M 115.800781 76 " clip-rule="nonzero"/></clipPath><clipPath id="2f4326a9d5"><path d="M 115.800781 113.910156 C 115.800781 103.914062 119.773438 94.324219 126.84375 87.253906 C 133.914062 80.183594 143.503906 76.210938 153.5 76.210938 L 596.515625 76.210938 C 606.515625 76.210938 616.105469 80.183594 623.175781 87.253906 C 630.242188 94.324219 634.214844 103.914062 634.214844 113.910156 C 634.214844 123.910156 630.242188 133.496094 623.175781 140.566406 C 616.105469 147.636719 606.515625 151.609375 596.515625 151.609375 L 153.5 151.609375 C 143.503906 151.609375 133.914062 147.636719 126.84375 140.566406 C 119.773438 133.496094 115.800781 123.910156 115.800781 113.910156 " clip-rule="nonzero"/></clipPath><clipPath id="56271d0e9b"><path d="M 327.738281 11.90625 L 403.527344 11.90625 L 403.527344 796 L 327.738281 796 Z M 327.738281 11.90625 " clip-rule="nonzero"/></clipPath><clipPath id="dc6fe59f14"><path d="M 365.417969 11.90625 C 375.410156 11.90625 384.992188 15.875 392.058594 22.941406 C 399.125 30.007812 403.097656 39.59375 403.097656 49.585938 L 403.097656 760.414062 C 403.097656 770.40625 399.125 779.992188 392.058594 787.058594 C 384.992188 794.125 375.410156 798.09375 365.417969 798.09375 C 355.421875 798.09375 345.839844 794.125 338.773438 787.058594 C 331.707031 779.992188 327.738281 770.40625 327.738281 760.414062 L 327.738281 49.585938 C 327.738281 39.59375 331.707031 30.007812 338.773438 22.941406 C 345.839844 15.875 355.421875 11.90625 365.417969 11.90625 " clip-rule="nonzero"/></clipPath><clipPath id="3f1cbfab74"><path d="M 115.792969 474.933594 L 191.582031 474.933594 L 191.582031 734 L 115.792969 734 Z M 115.792969 474.933594 " clip-rule="nonzero"/></clipPath><clipPath id="c51818f7cb"><path d="M 153.472656 474.933594 C 163.464844 474.933594 173.050781 478.902344 180.117188 485.96875 C 187.179688 493.035156 191.152344 502.617188 191.152344 512.609375 L 191.152344 695.550781 C 191.152344 705.546875 187.179688 715.128906 180.117188 722.195312 C 173.050781 729.261719 163.464844 733.230469 153.472656 733.230469 C 143.480469 733.230469 133.894531 729.261719 126.828125 722.195312 C 119.761719 715.128906 115.792969 705.546875 115.792969 695.550781 L 115.792969 512.609375 C 115.792969 502.617188 119.761719 493.035156 126.828125 485.96875 C 133.894531 478.902344 143.480469 474.933594 153.472656 474.933594 " clip-rule="nonzero"/></clipPath><clipPath id="d02afb19d4"><path d="M 558.410156 76 L 634.199219 76 L 634.199219 336.445312 L 558.410156 336.445312 Z M 558.410156 76 " clip-rule="nonzero"/></clipPath><clipPath id="468a7dab81"><path d="M 596.519531 336.445312 C 586.523438 336.445312 576.941406 332.472656 569.875 325.40625 C 562.808594 318.339844 558.839844 308.757812 558.839844 298.765625 L 558.839844 113.886719 C 558.839844 103.890625 562.808594 94.308594 569.875 87.242188 C 576.941406 80.175781 586.523438 76.207031 596.519531 76.207031 C 606.511719 76.207031 616.09375 80.175781 623.160156 87.242188 C 630.226562 94.308594 634.199219 103.890625 634.199219 113.886719 L 634.199219 298.765625 C 634.199219 308.757812 630.226562 318.339844 623.160156 325.40625 C 616.09375 332.472656 606.511719 336.445312 596.519531 336.445312 " clip-rule="nonzero"/></clipPath><clipPath id="dce9f763d0"><path d="M 115.792969 76.226562 L 191.582031 76.226562 L 191.582031 443 L 115.792969 443 Z M 115.792969 76.226562 " clip-rule="nonzero"/></clipPath><clipPath id="1e69e6b020"><path d="M 153.472656 76.226562 C 163.464844 76.226562 173.050781 80.195312 180.117188 87.261719 C 187.179688 94.328125 191.152344 103.910156 191.152344 113.902344 L 191.152344 405.019531 C 191.152344 415.011719 187.179688 424.597656 180.117188 431.664062 C 173.050781 438.730469 163.464844 442.699219 153.472656 442.699219 C 143.480469 442.699219 133.894531 438.730469 126.828125 431.664062 C 119.761719 424.597656 115.792969 415.011719 115.792969 405.019531 L 115.792969 113.902344 C 115.792969 103.910156 119.761719 94.328125 126.828125 87.261719 C 133.894531 80.195312 143.480469 76.226562 153.472656 76.226562 " clip-rule="nonzero"/></clipPath><clipPath id="348b240e7f"><path d="M 115.800781 367 L 635 367 L 635 442.6875 L 115.800781 442.6875 Z M 115.800781 367 " clip-rule="nonzero"/></clipPath><clipPath id="542d2dc318"><path d="M 115.800781 404.988281 C 115.800781 394.988281 119.773438 385.402344 126.84375 378.332031 C 133.914062 371.261719 143.503906 367.289062 153.5 367.289062 L 596.515625 367.289062 C 606.515625 367.289062 616.105469 371.261719 623.175781 378.332031 C 630.242188 385.402344 634.214844 394.988281 634.214844 404.988281 C 634.214844 414.984375 630.242188 424.574219 623.175781 431.644531 C 616.105469 438.714844 606.515625 442.6875 596.515625 442.6875 L 153.5 442.6875 C 143.503906 442.6875 133.914062 438.714844 126.84375 431.644531 C 119.773438 424.574219 115.800781 414.984375 115.800781 404.988281 " clip-rule="nonzero"/></clipPath><clipPath id="52589615c9"><path d="M 558.410156 371 L 634.199219 371 L 634.199219 733.21875 L 558.410156 733.21875 Z M 558.410156 371 " clip-rule="nonzero"/></clipPath><clipPath id="bca1c460bd"><path d="M 596.519531 733.21875 C 586.523438 733.21875 576.941406 729.25 569.875 722.183594 C 562.808594 715.117188 558.839844 705.53125 558.839844 695.539062 L 558.839844 404.96875 C 558.839844 394.976562 562.808594 385.390625 569.875 378.324219 C 576.941406 371.257812 586.523438 367.289062 596.519531 367.289062 C 606.511719 367.289062 616.09375 371.257812 623.160156 378.324219 C 630.226562 385.390625 634.199219 394.976562 634.199219 404.96875 L 634.199219 695.539062 C 634.199219 705.53125 630.226562 715.117188 623.160156 722.183594 C 616.09375 729.25 606.511719 733.21875 596.519531 733.21875 " clip-rule="nonzero"/></clipPath></defs><g clip-path="url(#287cd7e4be)"><g clip-path="url(#1eea83c015)"><path fill="#f1b617" d="M 634.195312 657.824219 L 634.195312 733.613281 L 112.101562 733.613281 L 112.101562 657.824219 Z M 634.195312 657.824219 " fill-opacity="1" fill-rule="nonzero"/></g></g><g clip-path="url(#1d5f6a65bb)"><g clip-path="url(#2f4326a9d5)"><path fill="#f1b617" d="M 115.800781 151.609375 L 115.800781 75.820312 L 637.894531 75.820312 L 637.894531 151.609375 Z M 115.800781 151.609375 " fill-opacity="1" fill-rule="nonzero"/></g></g><g clip-path="url(#56271d0e9b)"><g clip-path="url(#dc6fe59f14)"><path fill="#ffffff" d="M 327.738281 11.90625 L 403.527344 11.90625 L 403.527344 795.046875 L 327.738281 795.046875 Z M 327.738281 11.90625 " fill-opacity="1" fill-rule="nonzero"/></g></g><g clip-path="url(#3f1cbfab74)"><g clip-path="url(#c51818f7cb)"><path fill="#f1b617" d="M 115.792969 474.933594 L 191.582031 474.933594 L 191.582031 735.980469 L 115.792969 735.980469 Z M 115.792969 474.933594 " fill-opacity="1" fill-rule="nonzero"/></g></g><g clip-path="url(#d02afb19d4)"><g clip-path="url(#468a7dab81)"><path fill="#f1b617" d="M 634.199219 336.445312 L 558.410156 336.445312 L 558.410156 75.398438 L 634.199219 75.398438 Z M 634.199219 336.445312 " fill-opacity="1" fill-rule="nonzero"/></g></g><g clip-path="url(#dce9f763d0)"><g clip-path="url(#1e69e6b020)"><path fill="#f1b617" d="M 115.792969 76.226562 L 191.582031 76.226562 L 191.582031 446.742188 L 115.792969 446.742188 Z M 115.792969 76.226562 " fill-opacity="1" fill-rule="nonzero"/></g></g><g clip-path="url(#348b240e7f)"><g clip-path="url(#542d2dc318)"><path fill="#f1b617" d="M 115.800781 442.6875 L 115.800781 366.898438 L 637.894531 366.898438 L 637.894531 442.6875 Z M 115.800781 442.6875 " fill-opacity="1" fill-rule="nonzero"/></g></g><g clip-path="url(#52589615c9)"><g clip-path="url(#bca1c460bd)"><path fill="#f1b617" d="M 634.199219 733.21875 L 558.410156 733.21875 L 558.410156 371.121094 L 634.199219 371.121094 Z M 634.199219 733.21875 " fill-opacity="1" fill-rule="nonzero"/></g></g></svg>