<svg xmlns="http://www.w3.org/2000/svg" xmlns:xlink="http://www.w3.org/1999/xlink" width="1000" zoomAndPan="magnify" viewBox="0 0 750 809.999993" height="1080" preserveAspectRatio="xMidYMid meet" version="1.0"><defs><g/><clipPath id="6e4fc61ee4"><path d="M 196 469.234375 L 565.246094 469.234375 L 565.246094 523 L 196 523 Z M 196 469.234375 " clip-rule="nonzero"/></clipPath><clipPath id="1c6a3acc80"><path d="M 565.246094 496.058594 C 565.246094 503.175781 562.421875 510 557.390625 515.027344 C 552.359375 520.058594 545.535156 522.886719 538.421875 522.886719 L 223.175781 522.886719 C 216.058594 522.886719 209.234375 520.058594 204.207031 515.027344 C 199.175781 510 196.347656 503.175781 196.347656 496.058594 C 196.347656 488.945312 199.175781 482.121094 204.207031 477.089844 C 209.234375 472.0625 216.058594 469.234375 223.175781 469.234375 L 538.421875 469.234375 C 545.535156 469.234375 552.359375 472.0625 557.390625 477.089844 C 562.421875 482.121094 565.246094 488.945312 565.246094 496.058594 " clip-rule="nonzero"/></clipPath><clipPath id="921ecc9472"><path d="M 196.363281 55.085938 L 566 55.085938 L 566 109.015625 L 196.363281 109.015625 Z M 196.363281 55.085938 " clip-rule="nonzero"/></clipPath><clipPath id="6ee56c1ebb"><path d="M 196.363281 82.1875 C 196.363281 75.074219 199.191406 68.25 204.21875 63.21875 C 209.25 58.1875 216.074219 55.363281 223.1875 55.363281 L 538.4375 55.363281 C 545.550781 55.363281 552.375 58.1875 557.40625 63.21875 C 562.4375 68.25 565.261719 75.074219 565.261719 82.1875 C 565.261719 89.304688 562.4375 96.125 557.40625 101.15625 C 552.375 106.1875 545.550781 109.015625 538.4375 109.015625 L 223.1875 109.015625 C 216.074219 109.015625 209.25 106.1875 204.21875 101.15625 C 199.191406 96.125 196.363281 89.304688 196.363281 82.1875 " clip-rule="nonzero"/></clipPath><clipPath id="6aa4190110"><path d="M 347.175781 9.601562 L 401 9.601562 L 401 567 L 347.175781 567 Z M 347.175781 9.601562 " clip-rule="nonzero"/></clipPath><clipPath id="34811a8c86"><path d="M 373.988281 9.601562 C 381.097656 9.601562 387.917969 12.429688 392.945312 17.457031 C 397.976562 22.484375 400.800781 29.304688 400.800781 36.414062 L 400.800781 542.234375 C 400.800781 549.347656 397.976562 556.167969 392.945312 561.195312 C 387.917969 566.222656 381.097656 569.046875 373.988281 569.046875 C 366.875 569.046875 360.054688 566.222656 355.027344 561.195312 C 350 556.167969 347.175781 549.347656 347.175781 542.234375 L 347.175781 36.414062 C 347.175781 29.304688 350 22.484375 355.027344 17.457031 C 360.054688 12.429688 366.875 9.601562 373.988281 9.601562 " clip-rule="nonzero"/></clipPath><clipPath id="70207fab05"><path d="M 196.355469 339.089844 L 250 339.089844 L 250 523 L 196.355469 523 Z M 196.355469 339.089844 " clip-rule="nonzero"/></clipPath><clipPath id="beec65570c"><path d="M 223.167969 339.089844 C 230.28125 339.089844 237.101562 341.914062 242.128906 346.941406 C 247.15625 351.96875 249.980469 358.789062 249.980469 365.902344 L 249.980469 496.082031 C 249.980469 503.191406 247.15625 510.011719 242.128906 515.039062 C 237.101562 520.066406 230.28125 522.890625 223.167969 522.890625 C 216.058594 522.890625 209.238281 520.066406 204.210938 515.039062 C 199.183594 510.011719 196.355469 503.191406 196.355469 496.082031 L 196.355469 365.902344 C 196.355469 358.789062 199.183594 351.96875 204.210938 346.941406 C 209.238281 341.914062 216.058594 339.089844 223.167969 339.089844 " clip-rule="nonzero"/></clipPath><clipPath id="6361686738"><path d="M 511.320312 55 L 565.25 55 L 565.25 240.542969 L 511.320312 240.542969 Z M 511.320312 55 " clip-rule="nonzero"/></clipPath><clipPath id="5af468d974"><path d="M 538.4375 240.542969 C 531.328125 240.542969 524.507812 237.714844 519.480469 232.6875 C 514.449219 227.660156 511.625 220.839844 511.625 213.730469 L 511.625 82.171875 C 511.625 75.058594 514.449219 68.238281 519.480469 63.210938 C 524.507812 58.183594 531.328125 55.359375 538.4375 55.359375 C 545.546875 55.359375 552.367188 58.183594 557.398438 63.210938 C 562.425781 68.238281 565.25 75.058594 565.25 82.171875 L 565.25 213.730469 C 565.25 220.839844 562.425781 227.660156 557.398438 232.6875 C 552.367188 237.714844 545.546875 240.542969 538.4375 240.542969 " clip-rule="nonzero"/></clipPath><clipPath id="721501e26f"><path d="M 196.355469 55.371094 L 250 55.371094 L 250 317 L 196.355469 317 Z M 196.355469 55.371094 " clip-rule="nonzero"/></clipPath><clipPath id="762557e15b"><path d="M 223.167969 55.371094 C 230.28125 55.371094 237.101562 58.195312 242.128906 63.222656 C 247.15625 68.253906 249.980469 75.074219 249.980469 82.183594 L 249.980469 289.339844 C 249.980469 296.449219 247.15625 303.269531 242.128906 308.296875 C 237.101562 313.328125 230.28125 316.152344 223.167969 316.152344 C 216.058594 316.152344 209.238281 313.328125 204.210938 308.296875 C 199.183594 303.269531 196.355469 296.449219 196.355469 289.339844 L 196.355469 82.183594 C 196.355469 75.074219 199.183594 68.253906 204.210938 63.222656 C 209.238281 58.195312 216.058594 55.371094 223.167969 55.371094 " clip-rule="nonzero"/></clipPath><clipPath id="66698f81c8"><path d="M 196.363281 262.210938 L 566 262.210938 L 566 316.144531 L 196.363281 316.144531 Z M 196.363281 262.210938 " clip-rule="nonzero"/></clipPath><clipPath id="db2906456f"><path d="M 196.363281 289.316406 C 196.363281 282.203125 199.191406 275.378906 204.21875 270.347656 C 209.25 265.316406 216.074219 262.492188 223.1875 262.492188 L 538.4375 262.492188 C 545.550781 262.492188 552.375 265.316406 557.40625 270.347656 C 562.4375 275.378906 565.261719 282.203125 565.261719 289.316406 C 565.261719 296.429688 562.4375 303.253906 557.40625 308.285156 C 552.375 313.316406 545.550781 316.144531 538.4375 316.144531 L 223.1875 316.144531 C 216.074219 316.144531 209.25 313.316406 204.21875 308.285156 C 199.191406 303.253906 196.363281 296.429688 196.363281 289.316406 " clip-rule="nonzero"/></clipPath><clipPath id="d028a35db1"><path d="M 511.320312 265 L 565.25 265 L 565.25 522.882812 L 511.320312 522.882812 Z M 511.320312 265 " clip-rule="nonzero"/></clipPath><clipPath id="e9f1d4fc8d"><path d="M 538.4375 522.882812 C 531.328125 522.882812 524.507812 520.058594 519.480469 515.03125 C 514.449219 510 511.625 503.183594 511.625 496.070312 L 511.625 289.300781 C 511.625 282.191406 514.449219 275.371094 519.480469 270.34375 C 524.507812 265.316406 531.328125 262.492188 538.4375 262.492188 C 545.546875 262.492188 552.367188 265.316406 557.398438 270.34375 C 562.425781 275.371094 565.25 282.191406 565.25 289.300781 L 565.25 496.070312 C 565.25 503.183594 562.425781 510 557.398438 515.03125 C 552.367188 520.058594 545.546875 522.882812 538.4375 522.882812 " clip-rule="nonzero"/></clipPath></defs><g clip-path="url(#6e4fc61ee4)"><g clip-path="url(#1c6a3acc80)"><path fill="#000000" d="M 565.246094 469.234375 L 565.246094 523.164062 L 193.730469 523.164062 L 193.730469 469.234375 Z M 565.246094 469.234375 " fill-opacity="1" fill-rule="nonzero"/></g></g><g clip-path="url(#921ecc9472)"><g clip-path="url(#6ee56c1ebb)"><path fill="#000000" d="M 196.363281 109.015625 L 196.363281 55.085938 L 567.882812 55.085938 L 567.882812 109.015625 Z M 196.363281 109.015625 " fill-opacity="1" fill-rule="nonzero"/></g></g><g clip-path="url(#6aa4190110)"><g clip-path="url(#34811a8c86)"><path fill="#f1b617" d="M 347.175781 9.601562 L 401.105469 9.601562 L 401.105469 566.882812 L 347.175781 566.882812 Z M 347.175781 9.601562 " fill-opacity="1" fill-rule="nonzero"/></g></g><g clip-path="url(#70207fab05)"><g clip-path="url(#beec65570c)"><path fill="#000000" d="M 196.355469 339.089844 L 250.289062 339.089844 L 250.289062 524.847656 L 196.355469 524.847656 Z M 196.355469 339.089844 " fill-opacity="1" fill-rule="nonzero"/></g></g><g clip-path="url(#6361686738)"><g clip-path="url(#5af468d974)"><path fill="#000000" d="M 565.25 240.542969 L 511.320312 240.542969 L 511.320312 54.78125 L 565.25 54.78125 Z M 565.25 240.542969 " fill-opacity="1" fill-rule="nonzero"/></g></g><g clip-path="url(#721501e26f)"><g clip-path="url(#762557e15b)"><path fill="#000000" d="M 196.355469 55.371094 L 250.289062 55.371094 L 250.289062 319.03125 L 196.355469 319.03125 Z M 196.355469 55.371094 " fill-opacity="1" fill-rule="nonzero"/></g></g><g clip-path="url(#66698f81c8)"><g clip-path="url(#db2906456f)"><path fill="#000000" d="M 196.363281 316.144531 L 196.363281 262.210938 L 567.882812 262.210938 L 567.882812 316.144531 Z M 196.363281 316.144531 " fill-opacity="1" fill-rule="nonzero"/></g></g><g clip-path="url(#d028a35db1)"><g clip-path="url(#e9f1d4fc8d)"><path fill="#000000" d="M 565.25 522.882812 L 511.320312 522.882812 L 511.320312 265.21875 L 565.25 265.21875 Z M 565.25 522.882812 " fill-opacity="1" fill-rule="nonzero"/></g></g><g fill="#000000" fill-opacity="1"><g transform="translate(42.44528, 733.647018)"><g><path d="M 77.375 -106.46875 C 78.832031 -106.207031 79.625 -105.414062 79.75 -104.09375 L 79.75 -21.578125 C 79.488281 -20.117188 78.695312 -19.328125 77.375 -19.203125 L 37.609375 -19.203125 C 36.023438 -19.203125 35.234375 -19.992188 35.234375 -21.578125 L 35.234375 -104.09375 C 35.234375 -105.675781 36.023438 -106.46875 37.609375 -106.46875 Z M 11.484375 -25.921875 C 11.484375 -8.242188 20.847656 0.988281 39.578125 1.78125 C 40.503906 1.78125 41.429688 1.78125 42.359375 1.78125 L 72.625 1.78125 C 92.6875 0.851562 102.976562 -8.378906 103.5 -25.921875 L 103.5 -99.9375 C 103.238281 -118.144531 92.945312 -127.316406 72.625 -127.453125 L 42.359375 -127.453125 C 21.898438 -127.191406 11.609375 -118.019531 11.484375 -99.9375 Z M 11.484375 -25.921875 "/></g></g></g><g fill="#000000" fill-opacity="1"><g transform="translate(157.422928, 733.647018)"><g><path d="M 50.265625 -98.75 C 39.847656 -98.625 33.710938 -94.140625 31.859375 -85.296875 L 30.078125 -96.96875 L 10.09375 -96.96875 L 10.296875 0 L 32.65625 0 L 32.453125 -76.78125 C 32.453125 -78.363281 33.242188 -79.15625 34.828125 -79.15625 L 57.78125 -79.15625 L 57.78125 -98.75 Z M 50.265625 -98.75 "/></g></g></g><g fill="#000000" fill-opacity="1"><g transform="translate(214.812804, 733.647018)"><g><path d="M 67.484375 1.78125 L 67.484375 -17.21875 L 33.453125 -17.21875 C 31.992188 -17.476562 31.203125 -18.269531 31.078125 -19.59375 L 31.078125 -77.578125 C 31.335938 -78.898438 32.128906 -79.625 33.453125 -79.75 L 67.484375 -79.75 L 67.484375 -98.75 L 38 -98.75 C 23.21875 -98.75 14.046875 -94.332031 10.484375 -85.5 C 9.171875 -81.9375 8.515625 -77.644531 8.515625 -72.625 L 8.515625 -24.546875 C 8.515625 -11.742188 13.128906 -3.691406 22.359375 -0.390625 C 25.003906 0.523438 28.109375 1.179688 31.671875 1.578125 L 27.90625 19.59375 L 44.140625 19.59375 C 44.929688 19.851562 45.390625 20.316406 45.515625 20.984375 L 45.515625 28.5 C 45.253906 29.289062 44.796875 29.753906 44.140625 29.890625 L 25.734375 29.890625 L 25.734375 42.359375 L 41.5625 42.359375 C 53.164062 42.085938 59.035156 36.804688 59.171875 26.515625 L 59.171875 21.171875 C 59.171875 13.648438 55.082031 9.492188 46.90625 8.703125 C 45.71875 8.578125 44.53125 8.515625 43.34375 8.515625 L 41.359375 8.515625 L 42.546875 1.78125 Z M 67.484375 1.78125 "/></g></g></g><g fill="#000000" fill-opacity="1"><g transform="translate(285.46172, 733.647018)"><g><path d="M 54.625 -16.421875 L 30.078125 -16.421875 C 28.492188 -16.421875 27.703125 -17.210938 27.703125 -18.796875 L 27.703125 -39.1875 C 27.972656 -40.632812 28.765625 -41.425781 30.078125 -41.5625 L 54.625 -41.5625 Z M 37.015625 1.78125 C 47.296875 1.644531 53.363281 -3.035156 55.21875 -12.265625 L 57 0 L 77.1875 0 L 77.1875 -71.84375 C 77.1875 -84.238281 73.03125 -92.019531 64.71875 -95.1875 C 60.882812 -96.507812 55.9375 -97.171875 49.875 -97.171875 L 11.875 -97.171875 L 11.875 -78.375 L 52.25 -78.375 C 53.695312 -78.101562 54.488281 -77.3125 54.625 -76 L 54.625 -57.59375 L 32.265625 -57.59375 C 19.722656 -57.59375 11.738281 -54.492188 8.3125 -48.296875 C 6.46875 -44.734375 5.546875 -39.847656 5.546875 -33.640625 L 5.546875 -20.984375 C 5.546875 -9.367188 9.703125 -2.242188 18.015625 0.390625 C 21.179688 1.316406 25.003906 1.78125 29.484375 1.78125 Z M 37.015625 1.78125 "/></g></g></g><g fill="#f1b617" fill-opacity="1"><g transform="translate(369.333851, 733.647018)"><g><path d="M 98.5625 -26.515625 L 98.5625 -42.953125 C 98.425781 -53.898438 94.132812 -61.019531 85.6875 -64.3125 C 92.15625 -68.269531 95.457031 -74.738281 95.59375 -83.71875 L 95.59375 -99.34375 C 95.320312 -117.6875 85.359375 -126.726562 65.703125 -126.46875 L 13.859375 -125.671875 L 13.859375 0 L 68.28125 0.796875 C 84.375 1.054688 94.070312 -5.015625 97.375 -17.421875 C 98.164062 -20.191406 98.5625 -23.222656 98.5625 -26.515625 Z M 75.40625 -55.609375 C 76.988281 -55.347656 77.84375 -54.488281 77.96875 -53.03125 L 77.96875 -19.390625 C 77.707031 -17.804688 76.851562 -16.953125 75.40625 -16.828125 L 34.046875 -16.828125 L 34.046875 -55.609375 Z M 72.4375 -109.25 C 74.019531 -108.976562 74.875 -108.117188 75 -106.671875 L 75 -74.8125 C 74.738281 -73.226562 73.882812 -72.367188 72.4375 -72.234375 L 34.046875 -72.234375 L 34.046875 -109.25 Z M 72.4375 -109.25 "/></g></g></g><g fill="#f1b617" fill-opacity="1"><g transform="translate(479.166199, 733.647018)"><g><path d="M 76 1.1875 L 76 -15.234375 L 30.875 -15.234375 C 29.550781 -15.503906 28.828125 -16.234375 28.703125 -17.421875 L 28.703125 -37.40625 L 78.375 -37.40625 L 78.375 -75.203125 C 78.375 -86.148438 75.207031 -93.078125 68.875 -95.984375 C 65.039062 -97.703125 59.828125 -98.5625 53.234375 -98.5625 L 33.84375 -98.5625 C 22.5 -98.5625 15.242188 -95.789062 12.078125 -90.25 C 10.097656 -86.6875 9.109375 -81.671875 9.109375 -75.203125 L 9.109375 -23.15625 C 9.109375 -11.144531 13.460938 -3.691406 22.171875 -0.796875 C 25.992188 0.523438 30.742188 1.1875 36.421875 1.1875 Z M 28.703125 -80.546875 C 28.960938 -81.867188 29.6875 -82.59375 30.875 -82.71875 L 57 -82.71875 C 58.3125 -82.457031 59.035156 -81.734375 59.171875 -80.546875 L 59.171875 -51.453125 L 28.703125 -51.453125 Z M 28.703125 -80.546875 "/></g></g></g><g fill="#f1b617" fill-opacity="1"><g transform="translate(565.44891, 733.647018)"><g><path d="M 76 1.1875 L 76 -15.234375 L 30.875 -15.234375 C 29.550781 -15.503906 28.828125 -16.234375 28.703125 -17.421875 L 28.703125 -37.40625 L 78.375 -37.40625 L 78.375 -75.203125 C 78.375 -86.148438 75.207031 -93.078125 68.875 -95.984375 C 65.039062 -97.703125 59.828125 -98.5625 53.234375 -98.5625 L 33.84375 -98.5625 C 22.5 -98.5625 15.242188 -95.789062 12.078125 -90.25 C 10.097656 -86.6875 9.109375 -81.671875 9.109375 -75.203125 L 9.109375 -23.15625 C 9.109375 -11.144531 13.460938 -3.691406 22.171875 -0.796875 C 25.992188 0.523438 30.742188 1.1875 36.421875 1.1875 Z M 28.703125 -80.546875 C 28.960938 -81.867188 29.6875 -82.59375 30.875 -82.71875 L 57 -82.71875 C 58.3125 -82.457031 59.035156 -81.734375 59.171875 -80.546875 L 59.171875 -51.453125 L 28.703125 -51.453125 Z M 28.703125 -80.546875 "/></g></g></g><g fill="#f1b617" fill-opacity="1"><g transform="translate(651.73162, 733.647018)"><g><path d="M 46.90625 -98.5625 C 37.269531 -98.425781 31.398438 -94.53125 29.296875 -86.875 L 27.703125 -96.96875 L 10.484375 -96.96875 L 10.6875 0 L 30.078125 0 L 29.890625 -79.5625 C 30.148438 -80.75 30.875 -81.40625 32.0625 -81.53125 L 56 -81.53125 L 56 -98.5625 Z M 46.90625 -98.5625 "/></g></g></g></svg>