<svg xmlns="http://www.w3.org/2000/svg" xmlns:xlink="http://www.w3.org/1999/xlink" width="1080" zoomAndPan="magnify" viewBox="0 0 810 299.999988" height="400" preserveAspectRatio="xMidYMid meet" version="1.0"><defs><g/><clipPath id="88cf8960d3"><path d="M 8 224.6875 L 161.4375 224.6875 L 161.4375 247 L 8 247 Z M 8 224.6875 " clip-rule="nonzero"/></clipPath><clipPath id="6836c89e02"><path d="M 161.4375 235.824219 C 161.4375 238.777344 160.261719 241.609375 158.175781 243.699219 C 156.085938 245.785156 153.253906 246.960938 150.300781 246.960938 L 19.429688 246.960938 C 16.476562 246.960938 13.640625 245.785156 11.554688 243.699219 C 9.464844 241.609375 8.292969 238.777344 8.292969 235.824219 C 8.292969 232.871094 9.464844 230.039062 11.554688 227.949219 C 13.640625 225.859375 16.476562 224.6875 19.429688 224.6875 L 150.300781 224.6875 C 153.253906 224.6875 156.085938 225.859375 158.175781 227.949219 C 160.261719 230.039062 161.4375 232.871094 161.4375 235.824219 " clip-rule="nonzero"/></clipPath><clipPath id="658488cffb"><path d="M 8.296875 52.757812 L 162 52.757812 L 162 75.144531 L 8.296875 75.144531 Z M 8.296875 52.757812 " clip-rule="nonzero"/></clipPath><clipPath id="c94cbafa58"><path d="M 8.296875 64.007812 C 8.296875 61.054688 9.472656 58.222656 11.558594 56.136719 C 13.648438 54.046875 16.480469 52.875 19.433594 52.875 L 150.304688 52.875 C 153.257812 52.875 156.09375 54.046875 158.179688 56.136719 C 160.269531 58.222656 161.441406 61.054688 161.441406 64.007812 C 161.441406 66.964844 160.269531 69.796875 158.179688 71.882812 C 156.09375 73.972656 153.257812 75.144531 150.304688 75.144531 L 19.433594 75.144531 C 16.480469 75.144531 13.648438 73.972656 11.558594 71.882812 C 9.472656 69.796875 8.296875 66.964844 8.296875 64.007812 " clip-rule="nonzero"/></clipPath><clipPath id="e3cbe75ab8"><path d="M 70.90625 33.875 L 93.292969 33.875 L 93.292969 266 L 70.90625 266 Z M 70.90625 33.875 " clip-rule="nonzero"/></clipPath><clipPath id="dafb87188f"><path d="M 82.035156 33.875 C 84.988281 33.875 87.820312 35.050781 89.90625 37.136719 C 91.996094 39.222656 93.167969 42.054688 93.167969 45.007812 L 93.167969 254.992188 C 93.167969 257.945312 91.996094 260.777344 89.90625 262.863281 C 87.820312 264.949219 84.988281 266.125 82.035156 266.125 C 79.085938 266.125 76.253906 264.949219 74.167969 262.863281 C 72.078125 260.777344 70.90625 257.945312 70.90625 254.992188 L 70.90625 45.007812 C 70.90625 42.054688 72.078125 39.222656 74.167969 37.136719 C 76.253906 35.050781 79.085938 33.875 82.035156 33.875 " clip-rule="nonzero"/></clipPath><clipPath id="28abd15037"><path d="M 8.296875 170.660156 L 30.683594 170.660156 L 30.683594 247 L 8.296875 247 Z M 8.296875 170.660156 " clip-rule="nonzero"/></clipPath><clipPath id="6818f6ac95"><path d="M 19.425781 170.660156 C 22.378906 170.660156 25.210938 171.832031 27.296875 173.917969 C 29.382812 176.007812 30.558594 178.835938 30.558594 181.789062 L 30.558594 235.832031 C 30.558594 238.785156 29.382812 241.613281 27.296875 243.703125 C 25.210938 245.789062 22.378906 246.960938 19.425781 246.960938 C 16.472656 246.960938 13.644531 245.789062 11.554688 243.703125 C 9.46875 241.613281 8.296875 238.785156 8.296875 235.832031 L 8.296875 181.789062 C 8.296875 178.835938 9.46875 176.007812 11.554688 173.917969 C 13.644531 171.832031 16.472656 170.660156 19.425781 170.660156 " clip-rule="nonzero"/></clipPath><clipPath id="a39ac7c9b7"><path d="M 139.046875 52.632812 L 161.4375 52.632812 L 161.4375 129.746094 L 139.046875 129.746094 Z M 139.046875 52.632812 " clip-rule="nonzero"/></clipPath><clipPath id="bfc834d44f"><path d="M 150.304688 129.746094 C 147.355469 129.746094 144.523438 128.574219 142.4375 126.488281 C 140.347656 124.398438 139.175781 121.570312 139.175781 118.617188 L 139.175781 64.003906 C 139.175781 61.050781 140.347656 58.21875 142.4375 56.132812 C 144.523438 54.042969 147.355469 52.871094 150.304688 52.871094 C 153.257812 52.871094 156.089844 54.042969 158.175781 56.132812 C 160.265625 58.21875 161.4375 61.050781 161.4375 64.003906 L 161.4375 118.617188 C 161.4375 121.570312 160.265625 124.398438 158.175781 126.488281 C 156.089844 128.574219 153.257812 129.746094 150.304688 129.746094 " clip-rule="nonzero"/></clipPath><clipPath id="ad55a367cc"><path d="M 8.296875 52.875 L 30.683594 52.875 L 30.683594 162 L 8.296875 162 Z M 8.296875 52.875 " clip-rule="nonzero"/></clipPath><clipPath id="31461011c1"><path d="M 19.425781 52.875 C 22.378906 52.875 25.210938 54.050781 27.296875 56.136719 C 29.382812 58.222656 30.558594 61.054688 30.558594 64.007812 L 30.558594 150.003906 C 30.558594 152.957031 29.382812 155.789062 27.296875 157.875 C 25.210938 159.964844 22.378906 161.136719 19.425781 161.136719 C 16.472656 161.136719 13.644531 159.964844 11.554688 157.875 C 9.46875 155.789062 8.296875 152.957031 8.296875 150.003906 L 8.296875 64.007812 C 8.296875 61.054688 9.46875 58.222656 11.554688 56.136719 C 13.644531 54.050781 16.472656 52.875 19.425781 52.875 " clip-rule="nonzero"/></clipPath><clipPath id="4987a80a5c"><path d="M 8.296875 138.746094 L 162 138.746094 L 162 161.132812 L 8.296875 161.132812 Z M 8.296875 138.746094 " clip-rule="nonzero"/></clipPath><clipPath id="2b2fcadda2"><path d="M 8.296875 149.996094 C 8.296875 147.042969 9.472656 144.210938 11.558594 142.121094 C 13.648438 140.03125 16.480469 138.859375 19.433594 138.859375 L 150.304688 138.859375 C 153.257812 138.859375 156.09375 140.03125 158.179688 142.121094 C 160.269531 144.210938 161.441406 147.042969 161.441406 149.996094 C 161.441406 152.949219 160.269531 155.78125 158.179688 157.871094 C 156.09375 159.960938 153.257812 161.132812 150.304688 161.132812 L 19.433594 161.132812 C 16.480469 161.132812 13.648438 159.960938 11.558594 157.871094 C 9.472656 155.78125 8.296875 152.949219 8.296875 149.996094 " clip-rule="nonzero"/></clipPath><clipPath id="d4076a8fb0"><path d="M 139.046875 139 L 161.4375 139 L 161.4375 246.957031 L 139.046875 246.957031 Z M 139.046875 139 " clip-rule="nonzero"/></clipPath><clipPath id="0038e2f6ff"><path d="M 150.304688 246.957031 C 147.355469 246.957031 144.523438 245.785156 142.4375 243.699219 C 140.347656 241.609375 139.175781 238.78125 139.175781 235.828125 L 139.175781 149.992188 C 139.175781 147.039062 140.347656 144.207031 142.4375 142.121094 C 144.523438 140.03125 147.355469 138.859375 150.304688 138.859375 C 153.257812 138.859375 156.089844 140.03125 158.175781 142.121094 C 160.265625 144.207031 161.4375 147.039062 161.4375 149.992188 L 161.4375 235.828125 C 161.4375 238.78125 160.265625 241.609375 158.175781 243.699219 C 156.089844 245.785156 153.257812 246.957031 150.304688 246.957031 " clip-rule="nonzero"/></clipPath></defs><g clip-path="url(#88cf8960d3)"><g clip-path="url(#6836c89e02)"><path fill="#f1b617" d="M 161.4375 224.6875 L 161.4375 247.074219 L 7.203125 247.074219 L 7.203125 224.6875 Z M 161.4375 224.6875 " fill-opacity="1" fill-rule="nonzero"/></g></g><g clip-path="url(#658488cffb)"><g clip-path="url(#c94cbafa58)"><path fill="#f1b617" d="M 8.296875 75.144531 L 8.296875 52.757812 L 162.53125 52.757812 L 162.53125 75.144531 Z M 8.296875 75.144531 " fill-opacity="1" fill-rule="nonzero"/></g></g><g clip-path="url(#e3cbe75ab8)"><g clip-path="url(#dafb87188f)"><path fill="#ffffff" d="M 70.90625 33.875 L 93.292969 33.875 L 93.292969 265.222656 L 70.90625 265.222656 Z M 70.90625 33.875 " fill-opacity="1" fill-rule="nonzero"/></g></g><g clip-path="url(#28abd15037)"><g clip-path="url(#6818f6ac95)"><path fill="#f1b617" d="M 8.296875 170.660156 L 30.683594 170.660156 L 30.683594 247.773438 L 8.296875 247.773438 Z M 8.296875 170.660156 " fill-opacity="1" fill-rule="nonzero"/></g></g><g clip-path="url(#a39ac7c9b7)"><g clip-path="url(#bfc834d44f)"><path fill="#f1b617" d="M 161.4375 129.746094 L 139.046875 129.746094 L 139.046875 52.632812 L 161.4375 52.632812 Z M 161.4375 129.746094 " fill-opacity="1" fill-rule="nonzero"/></g></g><g clip-path="url(#ad55a367cc)"><g clip-path="url(#31461011c1)"><path fill="#f1b617" d="M 8.296875 52.875 L 30.683594 52.875 L 30.683594 162.332031 L 8.296875 162.332031 Z M 8.296875 52.875 " fill-opacity="1" fill-rule="nonzero"/></g></g><g clip-path="url(#4987a80a5c)"><g clip-path="url(#2b2fcadda2)"><path fill="#f1b617" d="M 8.296875 161.132812 L 8.296875 138.746094 L 162.53125 138.746094 L 162.53125 161.132812 Z M 8.296875 161.132812 " fill-opacity="1" fill-rule="nonzero"/></g></g><g clip-path="url(#d4076a8fb0)"><g clip-path="url(#0038e2f6ff)"><path fill="#f1b617" d="M 161.4375 246.957031 L 139.046875 246.957031 L 139.046875 139.992188 L 161.4375 139.992188 Z M 161.4375 246.957031 " fill-opacity="1" fill-rule="nonzero"/></g></g><g fill="#f1b617" fill-opacity="1"><g transform="translate(189.055167, 204.638295)"><g><path d="M 71.28125 -98.078125 C 72.613281 -97.835938 73.34375 -97.109375 73.46875 -95.890625 L 73.46875 -19.875 C 73.21875 -18.53125 72.488281 -17.800781 71.28125 -17.6875 L 34.640625 -17.6875 C 33.179688 -17.6875 32.453125 -18.414062 32.453125 -19.875 L 32.453125 -95.890625 C 32.453125 -97.347656 33.179688 -98.078125 34.640625 -98.078125 Z M 10.578125 -23.875 C 10.578125 -7.59375 19.203125 0.910156 36.453125 1.640625 C 37.304688 1.640625 38.160156 1.640625 39.015625 1.640625 L 66.90625 1.640625 C 85.375 0.785156 94.851562 -7.71875 95.34375 -23.875 L 95.34375 -92.0625 C 95.101562 -108.832031 85.625 -117.28125 66.90625 -117.40625 L 39.015625 -117.40625 C 20.171875 -117.15625 10.691406 -108.707031 10.578125 -92.0625 Z M 10.578125 -23.875 "/></g></g></g><g fill="#f1b617" fill-opacity="1"><g transform="translate(294.963969, 204.638295)"><g><path d="M 46.296875 -90.96875 C 36.703125 -90.84375 31.050781 -86.707031 29.34375 -78.5625 L 27.703125 -89.328125 L 9.296875 -89.328125 L 9.484375 0 L 30.078125 0 L 29.890625 -70.734375 C 29.890625 -72.191406 30.617188 -72.921875 32.078125 -72.921875 L 53.234375 -72.921875 L 53.234375 -90.96875 Z M 46.296875 -90.96875 "/></g></g></g><g fill="#f1b617" fill-opacity="1"><g transform="translate(347.827226, 204.638295)"><g><path d="M 62.15625 1.640625 L 62.15625 -15.859375 L 30.8125 -15.859375 C 29.46875 -16.097656 28.738281 -16.828125 28.625 -18.046875 L 28.625 -71.453125 C 28.863281 -72.671875 29.59375 -73.34375 30.8125 -73.46875 L 62.15625 -73.46875 L 62.15625 -90.96875 L 35 -90.96875 C 21.382812 -90.96875 12.9375 -86.894531 9.65625 -78.75 C 8.445312 -75.46875 7.84375 -71.519531 7.84375 -66.90625 L 7.84375 -22.609375 C 7.84375 -10.816406 12.09375 -3.398438 20.59375 -0.359375 C 23.03125 0.484375 25.890625 1.085938 29.171875 1.453125 L 25.703125 18.046875 L 40.65625 18.046875 C 41.382812 18.285156 41.804688 18.710938 41.921875 19.328125 L 41.921875 26.25 C 41.679688 26.976562 41.257812 27.40625 40.65625 27.53125 L 23.703125 27.53125 L 23.703125 39.015625 L 38.28125 39.015625 C 48.976562 38.765625 54.382812 33.898438 54.5 24.421875 L 54.5 19.5 C 54.5 12.570312 50.734375 8.742188 43.203125 8.015625 C 42.109375 7.898438 41.015625 7.84375 39.921875 7.84375 L 38.09375 7.84375 L 39.1875 1.640625 Z M 62.15625 1.640625 "/></g></g></g><g fill="#f1b617" fill-opacity="1"><g transform="translate(412.903718, 204.638295)"><g><path d="M 50.3125 -15.125 L 27.703125 -15.125 C 26.242188 -15.125 25.515625 -15.851562 25.515625 -17.3125 L 25.515625 -36.09375 C 25.765625 -37.425781 26.492188 -38.15625 27.703125 -38.28125 L 50.3125 -38.28125 Z M 34.09375 1.640625 C 43.570312 1.515625 49.160156 -2.796875 50.859375 -11.296875 L 52.5 0 L 71.09375 0 L 71.09375 -66.171875 C 71.09375 -77.597656 67.265625 -84.769531 59.609375 -87.6875 C 56.085938 -88.894531 51.53125 -89.5 45.9375 -89.5 L 10.9375 -89.5 L 10.9375 -72.1875 L 48.125 -72.1875 C 49.457031 -71.945312 50.1875 -71.21875 50.3125 -70 L 50.3125 -53.046875 L 29.71875 -53.046875 C 18.164062 -53.046875 10.8125 -50.191406 7.65625 -44.484375 C 5.957031 -41.203125 5.109375 -36.703125 5.109375 -30.984375 L 5.109375 -19.328125 C 5.109375 -8.628906 8.9375 -2.066406 16.59375 0.359375 C 19.507812 1.210938 23.03125 1.640625 27.15625 1.640625 Z M 34.09375 1.640625 "/></g></g></g><g fill="#ffffff" fill-opacity="1"><g transform="translate(490.160448, 204.638295)"><g><path d="M 90.78125 -24.421875 L 90.78125 -39.5625 C 90.65625 -49.644531 86.707031 -56.207031 78.9375 -59.25 C 84.882812 -62.894531 87.921875 -68.847656 88.046875 -77.109375 L 88.046875 -91.515625 C 87.804688 -108.410156 78.628906 -116.734375 60.515625 -116.484375 L 12.765625 -115.765625 L 12.765625 0 L 62.890625 0.734375 C 77.710938 0.972656 86.644531 -4.617188 89.6875 -16.046875 C 90.414062 -18.597656 90.78125 -21.390625 90.78125 -24.421875 Z M 69.453125 -51.21875 C 70.910156 -50.976562 71.703125 -50.191406 71.828125 -48.859375 L 71.828125 -17.859375 C 71.578125 -16.398438 70.785156 -15.613281 69.453125 -15.5 L 31.359375 -15.5 L 31.359375 -51.21875 Z M 66.71875 -100.625 C 68.175781 -100.382812 68.96875 -99.597656 69.09375 -98.265625 L 69.09375 -68.90625 C 68.84375 -67.445312 68.050781 -66.65625 66.71875 -66.53125 L 31.359375 -66.53125 L 31.359375 -100.625 Z M 66.71875 -100.625 "/></g></g></g><g fill="#ffffff" fill-opacity="1"><g transform="translate(591.329785, 204.638295)"><g><path d="M 70 1.09375 L 70 -14.03125 L 28.4375 -14.03125 C 27.21875 -14.28125 26.550781 -14.953125 26.4375 -16.046875 L 26.4375 -34.453125 L 72.1875 -34.453125 L 72.1875 -69.265625 C 72.1875 -79.359375 69.269531 -85.738281 63.4375 -88.40625 C 59.914062 -89.988281 55.113281 -90.78125 49.03125 -90.78125 L 31.171875 -90.78125 C 20.722656 -90.78125 14.039062 -88.226562 11.125 -83.125 C 9.300781 -79.84375 8.390625 -75.222656 8.390625 -69.265625 L 8.390625 -21.328125 C 8.390625 -10.265625 12.398438 -3.398438 20.421875 -0.734375 C 23.941406 0.484375 28.316406 1.09375 33.546875 1.09375 Z M 26.4375 -74.1875 C 26.675781 -75.40625 27.34375 -76.078125 28.4375 -76.203125 L 52.5 -76.203125 C 53.71875 -75.953125 54.382812 -75.28125 54.5 -74.1875 L 54.5 -47.390625 L 26.4375 -47.390625 Z M 26.4375 -74.1875 "/></g></g></g><g fill="#ffffff" fill-opacity="1"><g transform="translate(670.806958, 204.638295)"><g><path d="M 70 1.09375 L 70 -14.03125 L 28.4375 -14.03125 C 27.21875 -14.28125 26.550781 -14.953125 26.4375 -16.046875 L 26.4375 -34.453125 L 72.1875 -34.453125 L 72.1875 -69.265625 C 72.1875 -79.359375 69.269531 -85.738281 63.4375 -88.40625 C 59.914062 -89.988281 55.113281 -90.78125 49.03125 -90.78125 L 31.171875 -90.78125 C 20.722656 -90.78125 14.039062 -88.226562 11.125 -83.125 C 9.300781 -79.84375 8.390625 -75.222656 8.390625 -69.265625 L 8.390625 -21.328125 C 8.390625 -10.265625 12.398438 -3.398438 20.421875 -0.734375 C 23.941406 0.484375 28.316406 1.09375 33.546875 1.09375 Z M 26.4375 -74.1875 C 26.675781 -75.40625 27.34375 -76.078125 28.4375 -76.203125 L 52.5 -76.203125 C 53.71875 -75.953125 54.382812 -75.28125 54.5 -74.1875 L 54.5 -47.390625 L 26.4375 -47.390625 Z M 26.4375 -74.1875 "/></g></g></g><g fill="#ffffff" fill-opacity="1"><g transform="translate(750.284132, 204.638295)"><g><path d="M 43.203125 -90.78125 C 34.328125 -90.65625 28.921875 -87.070312 26.984375 -80.03125 L 25.515625 -89.328125 L 9.65625 -89.328125 L 9.84375 0 L 27.703125 0 L 27.53125 -73.28125 C 27.769531 -74.375 28.4375 -74.984375 29.53125 -75.109375 L 51.59375 -75.109375 L 51.59375 -90.78125 Z M 43.203125 -90.78125 "/></g></g></g></svg>