<svg xmlns="http://www.w3.org/2000/svg" xmlns:xlink="http://www.w3.org/1999/xlink" width="1080" zoomAndPan="magnify" viewBox="0 0 810 299.999988" height="400" preserveAspectRatio="xMidYMid meet" version="1.0"><defs><g/><clipPath id="054d137d4d"><path d="M 7 224.75 L 161.226562 224.75 L 161.226562 247.160156 L 7 247.160156 Z M 7 224.75 " clip-rule="nonzero"/></clipPath><clipPath id="64d44d3386"><path d="M 161.226562 235.898438 C 161.226562 238.851562 160.054688 241.6875 157.964844 243.777344 C 155.875 245.867188 153.039062 247.042969 150.082031 247.042969 L 19.097656 247.042969 C 16.144531 247.042969 13.308594 245.867188 11.21875 243.777344 C 9.128906 241.6875 7.953125 238.851562 7.953125 235.898438 C 7.953125 232.941406 9.128906 230.105469 11.21875 228.015625 C 13.308594 225.925781 16.144531 224.75 19.097656 224.75 L 150.082031 224.75 C 153.039062 224.75 155.875 225.925781 157.964844 228.015625 C 160.054688 230.105469 161.226562 232.941406 161.226562 235.898438 " clip-rule="nonzero"/></clipPath><clipPath id="a65f668785"><path d="M 7.960938 52.675781 L 162 52.675781 L 162 75.082031 L 7.960938 75.082031 Z M 7.960938 52.675781 " clip-rule="nonzero"/></clipPath><clipPath id="cb69ffad36"><path d="M 7.960938 63.9375 C 7.960938 60.980469 9.132812 58.144531 11.222656 56.054688 C 13.3125 53.964844 16.148438 52.789062 19.105469 52.789062 L 150.089844 52.789062 C 153.042969 52.789062 155.878906 53.964844 157.96875 56.054688 C 160.058594 58.144531 161.234375 60.980469 161.234375 63.9375 C 161.234375 66.890625 160.058594 69.726562 157.96875 71.816406 C 155.878906 73.90625 153.042969 75.082031 150.089844 75.082031 L 19.105469 75.082031 C 16.148438 75.082031 13.3125 73.90625 11.222656 71.816406 C 9.132812 69.726562 7.960938 66.890625 7.960938 63.9375 " clip-rule="nonzero"/></clipPath><clipPath id="f701382bde"><path d="M 70.621094 33.777344 L 93 33.777344 L 93 266 L 70.621094 266 Z M 70.621094 33.777344 " clip-rule="nonzero"/></clipPath><clipPath id="884e4cc3ad"><path d="M 81.761719 33.777344 C 84.714844 33.777344 87.550781 34.949219 89.636719 37.039062 C 91.726562 39.128906 92.902344 41.964844 92.902344 44.917969 L 92.902344 255.082031 C 92.902344 258.035156 91.726562 260.871094 89.636719 262.960938 C 87.550781 265.050781 84.714844 266.222656 81.761719 266.222656 C 78.804688 266.222656 75.972656 265.050781 73.882812 262.960938 C 71.792969 260.871094 70.621094 258.035156 70.621094 255.082031 L 70.621094 44.917969 C 70.621094 41.964844 71.792969 39.128906 73.882812 37.039062 C 75.972656 34.949219 78.804688 33.777344 81.761719 33.777344 " clip-rule="nonzero"/></clipPath><clipPath id="6de55c21b6"><path d="M 7.957031 170.675781 L 30.363281 170.675781 L 30.363281 247.859375 L 7.957031 247.859375 Z M 7.957031 170.675781 " clip-rule="nonzero"/></clipPath><clipPath id="d20976d65a"><path d="M 19.097656 170.675781 C 22.050781 170.675781 24.886719 171.851562 26.972656 173.9375 C 29.0625 176.027344 30.238281 178.863281 30.238281 181.816406 L 30.238281 235.90625 C 30.238281 238.859375 29.0625 241.691406 26.972656 243.78125 C 24.886719 245.871094 22.050781 247.046875 19.097656 247.046875 C 16.140625 247.046875 13.308594 245.871094 11.21875 243.78125 C 9.128906 241.691406 7.957031 238.859375 7.957031 235.90625 L 7.957031 181.816406 C 7.957031 178.863281 9.128906 176.027344 11.21875 173.9375 C 13.308594 171.851562 16.140625 170.675781 19.097656 170.675781 " clip-rule="nonzero"/></clipPath><clipPath id="aa4a44d07d"><path d="M 138.820312 52.550781 L 161.230469 52.550781 L 161.230469 129.730469 L 138.820312 129.730469 Z M 138.820312 52.550781 " clip-rule="nonzero"/></clipPath><clipPath id="6a36cf7052"><path d="M 150.089844 129.730469 C 147.132812 129.730469 144.300781 128.558594 142.210938 126.46875 C 140.121094 124.378906 138.949219 121.542969 138.949219 118.589844 L 138.949219 63.929688 C 138.949219 60.972656 140.121094 58.140625 142.210938 56.050781 C 144.300781 53.960938 147.132812 52.789062 150.089844 52.789062 C 153.042969 52.789062 155.875 53.960938 157.964844 56.050781 C 160.054688 58.140625 161.230469 60.972656 161.230469 63.929688 L 161.230469 118.589844 C 161.230469 121.542969 160.054688 124.378906 157.964844 126.46875 C 155.875 128.558594 153.042969 129.730469 150.089844 129.730469 " clip-rule="nonzero"/></clipPath><clipPath id="3c8f820e43"><path d="M 7.957031 52.792969 L 30.363281 52.792969 L 30.363281 162 L 7.957031 162 Z M 7.957031 52.792969 " clip-rule="nonzero"/></clipPath><clipPath id="767b00e97a"><path d="M 19.097656 52.792969 C 22.050781 52.792969 24.886719 53.96875 26.972656 56.058594 C 29.0625 58.144531 30.238281 60.980469 30.238281 63.933594 L 30.238281 150.003906 C 30.238281 152.960938 29.0625 155.792969 26.972656 157.882812 C 24.886719 159.972656 22.050781 161.144531 19.097656 161.144531 C 16.140625 161.144531 13.308594 159.972656 11.21875 157.882812 C 9.128906 155.792969 7.957031 152.960938 7.957031 150.003906 L 7.957031 63.933594 C 7.957031 60.980469 9.128906 58.144531 11.21875 56.058594 C 13.308594 53.96875 16.140625 52.792969 19.097656 52.792969 " clip-rule="nonzero"/></clipPath><clipPath id="d5403d5592"><path d="M 7.960938 138.734375 L 162 138.734375 L 162 161.140625 L 7.960938 161.140625 Z M 7.960938 138.734375 " clip-rule="nonzero"/></clipPath><clipPath id="eaf9a71d02"><path d="M 7.960938 149.996094 C 7.960938 147.039062 9.132812 144.207031 11.222656 142.113281 C 13.3125 140.023438 16.148438 138.851562 19.105469 138.851562 L 150.089844 138.851562 C 153.042969 138.851562 155.878906 140.023438 157.96875 142.113281 C 160.058594 144.207031 161.234375 147.039062 161.234375 149.996094 C 161.234375 152.953125 160.058594 155.789062 157.96875 157.878906 C 155.878906 159.96875 153.042969 161.140625 150.089844 161.140625 L 19.105469 161.140625 C 16.148438 161.140625 13.3125 159.96875 11.222656 157.878906 C 9.132812 155.789062 7.960938 152.953125 7.960938 149.996094 " clip-rule="nonzero"/></clipPath><clipPath id="96d617ac4e"><path d="M 138.820312 139 L 161.230469 139 L 161.230469 247.042969 L 138.820312 247.042969 Z M 138.820312 139 " clip-rule="nonzero"/></clipPath><clipPath id="ff5b6ae4b5"><path d="M 150.089844 247.042969 C 147.132812 247.042969 144.300781 245.867188 142.210938 243.777344 C 140.121094 241.6875 138.949219 238.855469 138.949219 235.902344 L 138.949219 149.992188 C 138.949219 147.035156 140.121094 144.203125 142.210938 142.113281 C 144.300781 140.023438 147.132812 138.851562 150.089844 138.851562 C 153.042969 138.851562 155.875 140.023438 157.964844 142.113281 C 160.054688 144.203125 161.230469 147.035156 161.230469 149.992188 L 161.230469 235.902344 C 161.230469 238.855469 160.054688 241.6875 157.964844 243.777344 C 155.875 245.867188 153.042969 247.042969 150.089844 247.042969 " clip-rule="nonzero"/></clipPath></defs><g clip-path="url(#054d137d4d)"><g clip-path="url(#64d44d3386)"><path fill="#000000" d="M 161.226562 224.75 L 161.226562 247.160156 L 6.863281 247.160156 L 6.863281 224.75 Z M 161.226562 224.75 " fill-opacity="1" fill-rule="nonzero"/></g></g><g clip-path="url(#a65f668785)"><g clip-path="url(#cb69ffad36)"><path fill="#000000" d="M 7.960938 75.082031 L 7.960938 52.675781 L 162.324219 52.675781 L 162.324219 75.082031 Z M 7.960938 75.082031 " fill-opacity="1" fill-rule="nonzero"/></g></g><g clip-path="url(#f701382bde)"><g clip-path="url(#884e4cc3ad)"><path fill="#ffffff" d="M 70.621094 33.777344 L 93.027344 33.777344 L 93.027344 265.320312 L 70.621094 265.320312 Z M 70.621094 33.777344 " fill-opacity="1" fill-rule="nonzero"/></g></g><g clip-path="url(#6de55c21b6)"><g clip-path="url(#d20976d65a)"><path fill="#000000" d="M 7.957031 170.675781 L 30.363281 170.675781 L 30.363281 247.859375 L 7.957031 247.859375 Z M 7.957031 170.675781 " fill-opacity="1" fill-rule="nonzero"/></g></g><g clip-path="url(#aa4a44d07d)"><g clip-path="url(#6a36cf7052)"><path fill="#000000" d="M 161.230469 129.730469 L 138.820312 129.730469 L 138.820312 52.550781 L 161.230469 52.550781 Z M 161.230469 129.730469 " fill-opacity="1" fill-rule="nonzero"/></g></g><g clip-path="url(#3c8f820e43)"><g clip-path="url(#767b00e97a)"><path fill="#000000" d="M 7.957031 52.792969 L 30.363281 52.792969 L 30.363281 162.34375 L 7.957031 162.34375 Z M 7.957031 52.792969 " fill-opacity="1" fill-rule="nonzero"/></g></g><g clip-path="url(#d5403d5592)"><g clip-path="url(#eaf9a71d02)"><path fill="#000000" d="M 7.960938 161.140625 L 7.960938 138.734375 L 162.324219 138.734375 L 162.324219 161.140625 Z M 7.960938 161.140625 " fill-opacity="1" fill-rule="nonzero"/></g></g><g clip-path="url(#96d617ac4e)"><g clip-path="url(#ff5b6ae4b5)"><path fill="#000000" d="M 161.230469 247.042969 L 138.820312 247.042969 L 138.820312 139.984375 L 161.230469 139.984375 Z M 161.230469 247.042969 " fill-opacity="1" fill-rule="nonzero"/></g></g><g fill="#000000" fill-opacity="1"><g transform="translate(188.870494, 204.68502)"><g><path d="M 71.34375 -98.15625 C 72.675781 -97.914062 73.40625 -97.1875 73.53125 -95.96875 L 73.53125 -19.890625 C 73.28125 -18.546875 72.550781 -17.816406 71.34375 -17.703125 L 34.671875 -17.703125 C 33.203125 -17.703125 32.46875 -18.429688 32.46875 -19.890625 L 32.46875 -95.96875 C 32.46875 -97.425781 33.203125 -98.15625 34.671875 -98.15625 Z M 10.578125 -23.90625 C 10.578125 -7.601562 19.210938 0.910156 36.484375 1.640625 C 37.335938 1.640625 38.191406 1.640625 39.046875 1.640625 L 66.953125 1.640625 C 85.441406 0.785156 94.929688 -7.726562 95.421875 -23.90625 L 95.421875 -92.140625 C 95.179688 -108.921875 85.691406 -117.375 66.953125 -117.5 L 39.046875 -117.5 C 20.191406 -117.25 10.703125 -108.796875 10.578125 -92.140625 Z M 10.578125 -23.90625 "/></g></g></g><g fill="#000000" fill-opacity="1"><g transform="translate(294.869861, 204.68502)"><g><path d="M 46.34375 -91.046875 C 36.726562 -90.921875 31.070312 -86.785156 29.375 -78.640625 L 27.734375 -89.40625 L 9.3125 -89.40625 L 9.484375 0 L 30.109375 0 L 29.921875 -70.796875 C 29.921875 -72.253906 30.648438 -72.984375 32.109375 -72.984375 L 53.28125 -72.984375 L 53.28125 -91.046875 Z M 46.34375 -91.046875 "/></g></g></g><g fill="#000000" fill-opacity="1"><g transform="translate(347.778323, 204.68502)"><g><path d="M 62.21875 1.640625 L 62.21875 -15.875 L 30.828125 -15.875 C 29.492188 -16.113281 28.765625 -16.84375 28.640625 -18.0625 L 28.640625 -71.515625 C 28.890625 -72.734375 29.617188 -73.40625 30.828125 -73.53125 L 62.21875 -73.53125 L 62.21875 -91.046875 L 35.03125 -91.046875 C 21.40625 -91.046875 12.953125 -86.96875 9.671875 -78.8125 C 8.453125 -75.53125 7.84375 -71.578125 7.84375 -66.953125 L 7.84375 -22.625 C 7.84375 -10.820312 12.097656 -3.398438 20.609375 -0.359375 C 23.046875 0.484375 25.90625 1.085938 29.1875 1.453125 L 25.71875 18.0625 L 40.6875 18.0625 C 41.414062 18.300781 41.84375 18.726562 41.96875 19.34375 L 41.96875 26.265625 C 41.71875 27.003906 41.289062 27.429688 40.6875 27.546875 L 23.71875 27.546875 L 23.71875 39.046875 L 38.3125 39.046875 C 49.019531 38.796875 54.429688 33.929688 54.546875 24.453125 L 54.546875 19.515625 C 54.546875 12.585938 50.773438 8.757812 43.234375 8.03125 C 42.140625 7.90625 41.046875 7.84375 39.953125 7.84375 L 38.125 7.84375 L 39.234375 1.640625 Z M 62.21875 1.640625 "/></g></g></g><g fill="#000000" fill-opacity="1"><g transform="translate(412.910464, 204.68502)"><g><path d="M 50.359375 -15.140625 L 27.734375 -15.140625 C 26.273438 -15.140625 25.546875 -15.867188 25.546875 -17.328125 L 25.546875 -36.125 C 25.785156 -37.457031 26.515625 -38.1875 27.734375 -38.3125 L 50.359375 -38.3125 Z M 34.125 1.640625 C 43.601562 1.515625 49.195312 -2.800781 50.90625 -11.3125 L 52.546875 0 L 71.15625 0 L 71.15625 -66.234375 C 71.15625 -77.660156 67.320312 -84.835938 59.65625 -87.765625 C 56.132812 -88.972656 51.578125 -89.578125 45.984375 -89.578125 L 10.953125 -89.578125 L 10.953125 -72.25 L 48.171875 -72.25 C 49.503906 -72.007812 50.234375 -71.28125 50.359375 -70.0625 L 50.359375 -53.09375 L 29.734375 -53.09375 C 18.179688 -53.09375 10.820312 -50.234375 7.65625 -44.515625 C 5.957031 -41.234375 5.109375 -36.734375 5.109375 -31.015625 L 5.109375 -19.34375 C 5.109375 -8.632812 8.941406 -2.066406 16.609375 0.359375 C 19.523438 1.210938 23.050781 1.640625 27.1875 1.640625 Z M 34.125 1.640625 "/></g></g></g><g fill="#ffffff" fill-opacity="1"><g transform="translate(490.233288, 204.68502)"><g><path d="M 90.859375 -24.453125 L 90.859375 -39.59375 C 90.734375 -49.6875 86.78125 -56.253906 79 -59.296875 C 84.957031 -62.941406 88 -68.898438 88.125 -77.171875 L 88.125 -91.59375 C 87.882812 -108.5 78.703125 -116.828125 60.578125 -116.578125 L 12.765625 -115.859375 L 12.765625 0 L 62.9375 0.734375 C 77.78125 0.972656 86.722656 -4.625 89.765625 -16.0625 C 90.492188 -18.613281 90.859375 -21.410156 90.859375 -24.453125 Z M 69.515625 -51.265625 C 70.972656 -51.023438 71.765625 -50.234375 71.890625 -48.890625 L 71.890625 -17.875 C 71.640625 -16.414062 70.847656 -15.628906 69.515625 -15.515625 L 31.375 -15.515625 L 31.375 -51.265625 Z M 66.78125 -100.71875 C 68.238281 -100.46875 69.023438 -99.675781 69.140625 -98.34375 L 69.140625 -68.96875 C 68.898438 -67.507812 68.113281 -66.71875 66.78125 -66.59375 L 31.375 -66.59375 L 31.375 -100.71875 Z M 66.78125 -100.71875 "/></g></g></g><g fill="#ffffff" fill-opacity="1"><g transform="translate(591.489137, 204.68502)"><g><path d="M 70.0625 1.09375 L 70.0625 -14.046875 L 28.46875 -14.046875 C 27.25 -14.285156 26.578125 -14.957031 26.453125 -16.0625 L 26.453125 -34.484375 L 72.25 -34.484375 L 72.25 -69.328125 C 72.25 -79.421875 69.332031 -85.804688 63.5 -88.484375 C 59.96875 -90.066406 55.160156 -90.859375 49.078125 -90.859375 L 31.203125 -90.859375 C 20.742188 -90.859375 14.050781 -88.304688 11.125 -83.203125 C 9.300781 -79.910156 8.390625 -75.285156 8.390625 -69.328125 L 8.390625 -21.34375 C 8.390625 -10.28125 12.40625 -3.410156 20.4375 -0.734375 C 23.957031 0.484375 28.335938 1.09375 33.578125 1.09375 Z M 26.453125 -74.25 C 26.691406 -75.46875 27.363281 -76.140625 28.46875 -76.265625 L 52.546875 -76.265625 C 53.765625 -76.023438 54.429688 -75.351562 54.546875 -74.25 L 54.546875 -47.4375 L 26.453125 -47.4375 Z M 26.453125 -74.25 "/></g></g></g><g fill="#ffffff" fill-opacity="1"><g transform="translate(671.034274, 204.68502)"><g><path d="M 70.0625 1.09375 L 70.0625 -14.046875 L 28.46875 -14.046875 C 27.25 -14.285156 26.578125 -14.957031 26.453125 -16.0625 L 26.453125 -34.484375 L 72.25 -34.484375 L 72.25 -69.328125 C 72.25 -79.421875 69.332031 -85.804688 63.5 -88.484375 C 59.96875 -90.066406 55.160156 -90.859375 49.078125 -90.859375 L 31.203125 -90.859375 C 20.742188 -90.859375 14.050781 -88.304688 11.125 -83.203125 C 9.300781 -79.910156 8.390625 -75.285156 8.390625 -69.328125 L 8.390625 -21.34375 C 8.390625 -10.28125 12.40625 -3.410156 20.4375 -0.734375 C 23.957031 0.484375 28.335938 1.09375 33.578125 1.09375 Z M 26.453125 -74.25 C 26.691406 -75.46875 27.363281 -76.140625 28.46875 -76.265625 L 52.546875 -76.265625 C 53.765625 -76.023438 54.429688 -75.351562 54.546875 -74.25 L 54.546875 -47.4375 L 26.453125 -47.4375 Z M 26.453125 -74.25 "/></g></g></g><g fill="#ffffff" fill-opacity="1"><g transform="translate(750.57941, 204.68502)"><g><path d="M 43.234375 -90.859375 C 34.359375 -90.734375 28.945312 -87.144531 27 -80.09375 L 25.546875 -89.40625 L 9.671875 -89.40625 L 9.859375 0 L 27.734375 0 L 27.546875 -73.34375 C 27.796875 -74.4375 28.46875 -75.046875 29.5625 -75.171875 L 51.640625 -75.171875 L 51.640625 -90.859375 Z M 43.234375 -90.859375 "/></g></g></g></svg>