<svg xmlns="http://www.w3.org/2000/svg" xmlns:xlink="http://www.w3.org/1999/xlink" width="1000" zoomAndPan="magnify" viewBox="0 0 750 809.999993" height="1080" preserveAspectRatio="xMidYMid meet" version="1.0"><defs><g/><clipPath id="93afda475b"><path d="M 197 468.289062 L 563.992188 468.289062 L 563.992188 521.863281 L 197 521.863281 Z M 197 468.289062 " clip-rule="nonzero"/></clipPath><clipPath id="ac04d4a340"><path d="M 563.992188 494.9375 C 563.992188 502.007812 561.183594 508.785156 556.1875 513.78125 C 551.191406 518.78125 544.410156 521.589844 537.34375 521.589844 L 224.175781 521.589844 C 217.109375 521.589844 210.328125 518.78125 205.332031 513.78125 C 200.332031 508.785156 197.527344 502.007812 197.527344 494.9375 C 197.527344 487.871094 200.332031 481.09375 205.332031 476.09375 C 210.328125 471.097656 217.109375 468.289062 224.175781 468.289062 L 537.34375 468.289062 C 544.410156 468.289062 551.191406 471.097656 556.1875 476.09375 C 561.183594 481.09375 563.992188 487.871094 563.992188 494.9375 " clip-rule="nonzero"/></clipPath><clipPath id="b92b117445"><path d="M 197.542969 57 L 565 57 L 565 110.445312 L 197.542969 110.445312 Z M 197.542969 57 " clip-rule="nonzero"/></clipPath><clipPath id="87ba483f5f"><path d="M 197.542969 83.796875 C 197.542969 76.730469 200.347656 69.949219 205.347656 64.953125 C 210.34375 59.957031 217.121094 57.148438 224.191406 57.148438 L 537.359375 57.148438 C 544.425781 57.148438 551.203125 59.957031 556.203125 64.953125 C 561.199219 69.949219 564.007812 76.730469 564.007812 83.796875 C 564.007812 90.863281 561.199219 97.644531 556.203125 102.640625 C 551.203125 107.636719 544.425781 110.445312 537.359375 110.445312 L 224.191406 110.445312 C 217.121094 110.445312 210.34375 107.636719 205.347656 102.640625 C 200.347656 97.644531 197.542969 90.863281 197.542969 83.796875 " clip-rule="nonzero"/></clipPath><clipPath id="33fc0a45d7"><path d="M 347.359375 11.691406 L 400.933594 11.691406 L 400.933594 566 L 347.359375 566 Z M 347.359375 11.691406 " clip-rule="nonzero"/></clipPath><clipPath id="b550371222"><path d="M 373.992188 11.691406 C 381.058594 11.691406 387.832031 14.496094 392.828125 19.492188 C 397.824219 24.488281 400.628906 31.261719 400.628906 38.324219 L 400.628906 540.808594 C 400.628906 547.875 397.824219 554.648438 392.828125 559.644531 C 387.832031 564.640625 381.058594 567.445312 373.992188 567.445312 C 366.929688 567.445312 360.15625 564.640625 355.160156 559.644531 C 350.164062 554.648438 347.359375 547.875 347.359375 540.808594 L 347.359375 38.324219 C 347.359375 31.261719 350.164062 24.488281 355.160156 19.492188 C 360.15625 14.496094 366.929688 11.691406 373.992188 11.691406 " clip-rule="nonzero"/></clipPath><clipPath id="54ca75f0c1"><path d="M 197.535156 339.003906 L 251 339.003906 L 251 522 L 197.535156 522 Z M 197.535156 339.003906 " clip-rule="nonzero"/></clipPath><clipPath id="1cff473167"><path d="M 224.171875 339.003906 C 231.234375 339.003906 238.007812 341.808594 243.003906 346.804688 C 248 351.800781 250.804688 358.574219 250.804688 365.636719 L 250.804688 494.957031 C 250.804688 502.023438 248 508.796875 243.003906 513.792969 C 238.007812 518.789062 231.234375 521.59375 224.171875 521.59375 C 217.105469 521.59375 210.332031 518.789062 205.335938 513.792969 C 200.339844 508.796875 197.535156 502.023438 197.535156 494.957031 L 197.535156 365.636719 C 197.535156 358.574219 200.339844 351.800781 205.335938 346.804688 C 210.332031 341.808594 217.105469 339.003906 224.171875 339.003906 " clip-rule="nonzero"/></clipPath><clipPath id="880367c091"><path d="M 510.421875 57 L 563.996094 57 L 563.996094 241.105469 L 510.421875 241.105469 Z M 510.421875 57 " clip-rule="nonzero"/></clipPath><clipPath id="d8340a2dee"><path d="M 537.359375 241.105469 C 530.296875 241.105469 523.519531 238.300781 518.527344 233.304688 C 513.53125 228.308594 510.722656 221.535156 510.722656 214.46875 L 510.722656 83.777344 C 510.722656 76.714844 513.53125 69.941406 518.527344 64.945312 C 523.519531 59.949219 530.296875 57.144531 537.359375 57.144531 C 544.421875 57.144531 551.199219 59.949219 556.195312 64.945312 C 561.1875 69.941406 563.996094 76.714844 563.996094 83.777344 L 563.996094 214.46875 C 563.996094 221.535156 561.1875 228.308594 556.195312 233.304688 C 551.199219 238.300781 544.421875 241.105469 537.359375 241.105469 " clip-rule="nonzero"/></clipPath><clipPath id="6e58c18ebb"><path d="M 197.535156 57.15625 L 251 57.15625 L 251 317 L 197.535156 317 Z M 197.535156 57.15625 " clip-rule="nonzero"/></clipPath><clipPath id="dd67892caa"><path d="M 224.171875 57.15625 C 231.234375 57.15625 238.007812 59.960938 243.003906 64.957031 C 248 69.953125 250.804688 76.726562 250.804688 83.792969 L 250.804688 289.582031 C 250.804688 296.644531 248 303.421875 243.003906 308.414062 C 238.007812 313.410156 231.234375 316.21875 224.171875 316.21875 C 217.105469 316.21875 210.332031 313.410156 205.335938 308.414062 C 200.339844 303.421875 197.535156 296.644531 197.535156 289.582031 L 197.535156 83.792969 C 197.535156 76.726562 200.339844 69.953125 205.335938 64.957031 C 210.332031 59.960938 217.105469 57.15625 224.171875 57.15625 " clip-rule="nonzero"/></clipPath><clipPath id="25c355548a"><path d="M 197.542969 262.632812 L 565 262.632812 L 565 316.207031 L 197.542969 316.207031 Z M 197.542969 262.632812 " clip-rule="nonzero"/></clipPath><clipPath id="4b5c56a095"><path d="M 197.542969 289.558594 C 197.542969 282.492188 200.347656 275.714844 205.347656 270.714844 C 210.34375 265.71875 217.121094 262.910156 224.191406 262.910156 L 537.359375 262.910156 C 544.425781 262.910156 551.203125 265.71875 556.203125 270.714844 C 561.199219 275.714844 564.007812 282.492188 564.007812 289.558594 C 564.007812 296.625 561.199219 303.40625 556.203125 308.402344 C 551.203125 313.402344 544.425781 316.207031 537.359375 316.207031 L 224.191406 316.207031 C 217.121094 316.207031 210.34375 313.402344 205.347656 308.402344 C 200.347656 303.40625 197.542969 296.625 197.542969 289.558594 " clip-rule="nonzero"/></clipPath><clipPath id="e0ba379b34"><path d="M 510.421875 265 L 563.996094 265 L 563.996094 521.585938 L 510.421875 521.585938 Z M 510.421875 265 " clip-rule="nonzero"/></clipPath><clipPath id="be3dd28bb8"><path d="M 537.359375 521.585938 C 530.296875 521.585938 523.519531 518.777344 518.527344 513.785156 C 513.53125 508.789062 510.722656 502.015625 510.722656 494.949219 L 510.722656 289.546875 C 510.722656 282.480469 513.53125 275.707031 518.527344 270.710938 C 523.519531 265.714844 530.296875 262.910156 537.359375 262.910156 C 544.421875 262.910156 551.199219 265.714844 556.195312 270.710938 C 561.1875 275.707031 563.996094 282.480469 563.996094 289.546875 L 563.996094 494.949219 C 563.996094 502.015625 561.1875 508.789062 556.195312 513.785156 C 551.199219 518.777344 544.421875 521.585938 537.359375 521.585938 " clip-rule="nonzero"/></clipPath></defs><g clip-path="url(#93afda475b)"><g clip-path="url(#ac04d4a340)"><path fill="#000000" d="M 563.992188 468.289062 L 563.992188 521.863281 L 194.925781 521.863281 L 194.925781 468.289062 Z M 563.992188 468.289062 " fill-opacity="1" fill-rule="nonzero"/></g></g><g clip-path="url(#b92b117445)"><g clip-path="url(#87ba483f5f)"><path fill="#000000" d="M 197.542969 110.445312 L 197.542969 56.871094 L 566.609375 56.871094 L 566.609375 110.445312 Z M 197.542969 110.445312 " fill-opacity="1" fill-rule="nonzero"/></g></g><g clip-path="url(#33fc0a45d7)"><g clip-path="url(#b550371222)"><path fill="#ffffff" d="M 347.359375 11.691406 L 400.933594 11.691406 L 400.933594 565.292969 L 347.359375 565.292969 Z M 347.359375 11.691406 " fill-opacity="1" fill-rule="nonzero"/></g></g><g clip-path="url(#54ca75f0c1)"><g clip-path="url(#1cff473167)"><path fill="#000000" d="M 197.535156 339.003906 L 251.109375 339.003906 L 251.109375 523.539062 L 197.535156 523.539062 Z M 197.535156 339.003906 " fill-opacity="1" fill-rule="nonzero"/></g></g><g clip-path="url(#880367c091)"><g clip-path="url(#d8340a2dee)"><path fill="#000000" d="M 563.996094 241.105469 L 510.421875 241.105469 L 510.421875 56.570312 L 563.996094 56.570312 Z M 563.996094 241.105469 " fill-opacity="1" fill-rule="nonzero"/></g></g><g clip-path="url(#6e58c18ebb)"><g clip-path="url(#dd67892caa)"><path fill="#000000" d="M 197.535156 57.15625 L 251.109375 57.15625 L 251.109375 319.078125 L 197.535156 319.078125 Z M 197.535156 57.15625 " fill-opacity="1" fill-rule="nonzero"/></g></g><g clip-path="url(#25c355548a)"><g clip-path="url(#4b5c56a095)"><path fill="#000000" d="M 197.542969 316.207031 L 197.542969 262.632812 L 566.609375 262.632812 L 566.609375 316.207031 Z M 197.542969 316.207031 " fill-opacity="1" fill-rule="nonzero"/></g></g><g clip-path="url(#e0ba379b34)"><g clip-path="url(#be3dd28bb8)"><path fill="#000000" d="M 563.996094 521.585938 L 510.421875 521.585938 L 510.421875 265.617188 L 563.996094 265.617188 Z M 563.996094 521.585938 " fill-opacity="1" fill-rule="nonzero"/></g></g><g fill="#000000" fill-opacity="1"><g transform="translate(44.638302, 730.958929)"><g><path d="M 76.875 -105.765625 C 78.3125 -105.503906 79.097656 -104.71875 79.234375 -103.40625 L 79.234375 -21.421875 C 78.960938 -19.984375 78.175781 -19.195312 76.875 -19.0625 L 37.359375 -19.0625 C 35.785156 -19.0625 35 -19.847656 35 -21.421875 L 35 -103.40625 C 35 -104.976562 35.785156 -105.765625 37.359375 -105.765625 Z M 11.40625 -25.75 C 11.40625 -8.1875 20.707031 0.984375 39.3125 1.765625 C 40.226562 1.765625 41.148438 1.765625 42.078125 1.765625 L 72.15625 1.765625 C 92.070312 0.847656 102.289062 -8.320312 102.8125 -25.75 L 102.8125 -99.28125 C 102.550781 -117.363281 92.332031 -126.472656 72.15625 -126.609375 L 42.078125 -126.609375 C 21.753906 -126.347656 11.53125 -117.238281 11.40625 -99.28125 Z M 11.40625 -25.75 "/></g></g></g><g fill="#000000" fill-opacity="1"><g transform="translate(158.857677, 730.958929)"><g><path d="M 49.9375 -98.09375 C 39.582031 -97.96875 33.488281 -93.515625 31.65625 -84.734375 L 29.875 -96.328125 L 10.03125 -96.328125 L 10.21875 0 L 32.4375 0 L 32.234375 -76.28125 C 32.234375 -77.851562 33.019531 -78.640625 34.59375 -78.640625 L 57.40625 -78.640625 L 57.40625 -98.09375 Z M 49.9375 -98.09375 "/></g></g></g><g fill="#000000" fill-opacity="1"><g transform="translate(215.869069, 730.958929)"><g><path d="M 67.03125 1.765625 L 67.03125 -17.109375 L 33.21875 -17.109375 C 31.78125 -17.367188 30.992188 -18.15625 30.859375 -19.46875 L 30.859375 -77.0625 C 31.128906 -78.375 31.914062 -79.097656 33.21875 -79.234375 L 67.03125 -79.234375 L 67.03125 -98.09375 L 37.75 -98.09375 C 23.070312 -98.09375 13.960938 -93.703125 10.421875 -84.921875 C 9.109375 -81.390625 8.453125 -77.132812 8.453125 -72.15625 L 8.453125 -24.375 C 8.453125 -11.664062 13.039062 -3.671875 22.21875 -0.390625 C 24.832031 0.523438 27.910156 1.179688 31.453125 1.578125 L 27.71875 19.46875 L 43.84375 19.46875 C 44.625 19.726562 45.082031 20.1875 45.21875 20.84375 L 45.21875 28.3125 C 44.957031 29.09375 44.5 29.550781 43.84375 29.6875 L 25.5625 29.6875 L 25.5625 42.078125 L 41.28125 42.078125 C 52.8125 41.804688 58.644531 36.5625 58.78125 26.34375 L 58.78125 21.03125 C 58.78125 13.5625 54.71875 9.4375 46.59375 8.65625 C 45.414062 8.519531 44.234375 8.453125 43.046875 8.453125 L 41.09375 8.453125 L 42.265625 1.765625 Z M 67.03125 1.765625 "/></g></g></g><g fill="#000000" fill-opacity="1"><g transform="translate(286.052059, 730.958929)"><g><path d="M 54.265625 -16.3125 L 29.875 -16.3125 C 28.300781 -16.3125 27.515625 -17.097656 27.515625 -18.671875 L 27.515625 -38.921875 C 27.785156 -40.367188 28.570312 -41.15625 29.875 -41.28125 L 54.265625 -41.28125 Z M 36.765625 1.765625 C 46.984375 1.640625 53.007812 -3.007812 54.84375 -12.1875 L 56.625 0 L 76.671875 0 L 76.671875 -71.359375 C 76.671875 -83.679688 72.539062 -91.414062 64.28125 -94.5625 C 60.476562 -95.875 55.566406 -96.53125 49.546875 -96.53125 L 11.796875 -96.53125 L 11.796875 -77.84375 L 51.90625 -77.84375 C 53.34375 -77.582031 54.128906 -76.800781 54.265625 -75.5 L 54.265625 -57.203125 L 32.046875 -57.203125 C 19.597656 -57.203125 11.664062 -54.125 8.25 -47.96875 C 6.414062 -44.425781 5.5 -39.578125 5.5 -33.421875 L 5.5 -20.84375 C 5.5 -9.300781 9.628906 -2.222656 17.890625 0.390625 C 21.035156 1.304688 24.835938 1.765625 29.296875 1.765625 Z M 36.765625 1.765625 "/></g></g></g><g fill="#ffffff" fill-opacity="1"><g transform="translate(369.386425, 731.936944)"><g><path d="M 97.90625 -26.34375 L 97.90625 -42.65625 C 97.769531 -53.539062 93.507812 -60.617188 85.125 -63.890625 C 91.550781 -67.828125 94.828125 -74.25 94.953125 -83.15625 L 94.953125 -98.6875 C 94.691406 -116.90625 84.796875 -125.882812 65.265625 -125.625 L 13.765625 -124.84375 L 13.765625 0 L 67.828125 0.78125 C 83.816406 1.039062 93.445312 -4.984375 96.71875 -17.296875 C 97.507812 -20.046875 97.90625 -23.0625 97.90625 -26.34375 Z M 74.90625 -55.25 C 76.476562 -54.976562 77.328125 -54.125 77.453125 -52.6875 L 77.453125 -19.265625 C 77.191406 -17.691406 76.34375 -16.835938 74.90625 -16.703125 L 33.8125 -16.703125 L 33.8125 -55.25 Z M 71.953125 -108.515625 C 73.523438 -108.253906 74.378906 -107.40625 74.515625 -105.96875 L 74.515625 -74.3125 C 74.242188 -72.738281 73.390625 -71.882812 71.953125 -71.75 L 33.8125 -71.75 L 33.8125 -108.515625 Z M 71.953125 -108.515625 "/></g></g></g><g fill="#ffffff" fill-opacity="1"><g transform="translate(478.489448, 731.936944)"><g><path d="M 75.5 1.171875 L 75.5 -15.140625 L 30.671875 -15.140625 C 29.359375 -15.398438 28.632812 -16.117188 28.5 -17.296875 L 28.5 -37.15625 L 77.84375 -37.15625 L 77.84375 -74.703125 C 77.84375 -85.578125 74.703125 -92.457031 68.421875 -95.34375 C 64.617188 -97.050781 59.441406 -97.90625 52.890625 -97.90625 L 33.625 -97.90625 C 22.34375 -97.90625 15.132812 -95.148438 12 -89.640625 C 10.03125 -86.109375 9.046875 -81.128906 9.046875 -74.703125 L 9.046875 -23 C 9.046875 -11.070312 13.367188 -3.664062 22.015625 -0.78125 C 25.816406 0.519531 30.535156 1.171875 36.171875 1.171875 Z M 28.5 -80.015625 C 28.769531 -81.328125 29.492188 -82.046875 30.671875 -82.171875 L 56.625 -82.171875 C 57.925781 -81.910156 58.644531 -81.191406 58.78125 -80.015625 L 58.78125 -51.109375 L 28.5 -51.109375 Z M 28.5 -80.015625 "/></g></g></g><g fill="#ffffff" fill-opacity="1"><g transform="translate(564.199211, 731.936944)"><g><path d="M 75.5 1.171875 L 75.5 -15.140625 L 30.671875 -15.140625 C 29.359375 -15.398438 28.632812 -16.117188 28.5 -17.296875 L 28.5 -37.15625 L 77.84375 -37.15625 L 77.84375 -74.703125 C 77.84375 -85.578125 74.703125 -92.457031 68.421875 -95.34375 C 64.617188 -97.050781 59.441406 -97.90625 52.890625 -97.90625 L 33.625 -97.90625 C 22.34375 -97.90625 15.132812 -95.148438 12 -89.640625 C 10.03125 -86.109375 9.046875 -81.128906 9.046875 -74.703125 L 9.046875 -23 C 9.046875 -11.070312 13.367188 -3.664062 22.015625 -0.78125 C 25.816406 0.519531 30.535156 1.171875 36.171875 1.171875 Z M 28.5 -80.015625 C 28.769531 -81.328125 29.492188 -82.046875 30.671875 -82.171875 L 56.625 -82.171875 C 57.925781 -81.910156 58.644531 -81.191406 58.78125 -80.015625 L 58.78125 -51.109375 L 28.5 -51.109375 Z M 28.5 -80.015625 "/></g></g></g><g fill="#ffffff" fill-opacity="1"><g transform="translate(649.908974, 731.936944)"><g><path d="M 46.59375 -97.90625 C 37.019531 -97.769531 31.1875 -93.90625 29.09375 -86.3125 L 27.515625 -96.328125 L 10.421875 -96.328125 L 10.609375 0 L 29.875 0 L 29.6875 -79.03125 C 29.945312 -80.207031 30.664062 -80.863281 31.84375 -81 L 55.640625 -81 L 55.640625 -97.90625 Z M 46.59375 -97.90625 "/></g></g></g></svg>