<svg xmlns="http://www.w3.org/2000/svg" xmlns:xlink="http://www.w3.org/1999/xlink" width="1000" zoomAndPan="magnify" viewBox="0 0 750 809.999993" height="1080" preserveAspectRatio="xMidYMid meet" version="1.0"><defs><g/><clipPath id="789fd4b814"><path d="M 196 468.640625 L 565.035156 468.640625 L 565.035156 522.507812 L 196 522.507812 Z M 196 468.640625 " clip-rule="nonzero"/></clipPath><clipPath id="490825dde7"><path d="M 565.035156 495.433594 C 565.035156 502.542969 562.214844 509.359375 557.1875 514.382812 C 552.164062 519.410156 545.347656 522.230469 538.238281 522.230469 L 223.34375 522.230469 C 216.238281 522.230469 209.421875 519.410156 204.394531 514.382812 C 199.371094 509.359375 196.546875 502.542969 196.546875 495.433594 C 196.546875 488.328125 199.371094 481.511719 204.394531 476.488281 C 209.421875 471.460938 216.238281 468.640625 223.34375 468.640625 L 538.238281 468.640625 C 545.347656 468.640625 552.164062 471.460938 557.1875 476.488281 C 562.214844 481.511719 565.035156 488.328125 565.035156 495.433594 " clip-rule="nonzero"/></clipPath><clipPath id="4f1710c20d"><path d="M 196.5625 55 L 566 55 L 566 108.820312 L 196.5625 108.820312 Z M 196.5625 55 " clip-rule="nonzero"/></clipPath><clipPath id="d4fc89a96c"><path d="M 196.5625 82.023438 C 196.5625 74.917969 199.386719 68.101562 204.410156 63.078125 C 209.4375 58.050781 216.25 55.226562 223.359375 55.226562 L 538.253906 55.226562 C 545.363281 55.226562 552.179688 58.050781 557.203125 63.078125 C 562.226562 68.101562 565.050781 74.917969 565.050781 82.023438 C 565.050781 89.132812 562.226562 95.945312 557.203125 100.972656 C 552.179688 105.996094 545.363281 108.820312 538.253906 108.820312 L 223.359375 108.820312 C 216.25 108.820312 209.4375 105.996094 204.410156 100.972656 C 199.386719 95.945312 196.5625 89.132812 196.5625 82.023438 " clip-rule="nonzero"/></clipPath><clipPath id="889f8d42bc"><path d="M 347.207031 9.519531 L 401 9.519531 L 401 567 L 347.207031 567 Z M 347.207031 9.519531 " clip-rule="nonzero"/></clipPath><clipPath id="a7aa6da955"><path d="M 373.988281 9.519531 C 381.09375 9.519531 387.902344 12.339844 392.925781 17.363281 C 397.949219 22.386719 400.769531 29.199219 400.769531 36.300781 L 400.769531 541.558594 C 400.769531 548.664062 397.949219 555.476562 392.925781 560.5 C 387.902344 565.519531 381.09375 568.34375 373.988281 568.34375 C 366.886719 568.34375 360.074219 565.519531 355.050781 560.5 C 350.027344 555.476562 347.207031 548.664062 347.207031 541.558594 L 347.207031 36.300781 C 347.207031 29.199219 350.027344 22.386719 355.050781 17.363281 C 360.074219 12.339844 366.886719 9.519531 373.988281 9.519531 " clip-rule="nonzero"/></clipPath><clipPath id="cb2e4cfc80"><path d="M 196.554688 338.640625 L 250.425781 338.640625 L 250.425781 523 L 196.554688 523 Z M 196.554688 338.640625 " clip-rule="nonzero"/></clipPath><clipPath id="e618b98d58"><path d="M 223.339844 338.640625 C 230.441406 338.640625 237.253906 341.460938 242.277344 346.484375 C 247.300781 351.507812 250.121094 358.316406 250.121094 365.421875 L 250.121094 495.457031 C 250.121094 502.558594 247.300781 509.371094 242.277344 514.394531 C 237.253906 519.417969 230.441406 522.238281 223.339844 522.238281 C 216.234375 522.238281 209.421875 519.417969 204.402344 514.394531 C 199.378906 509.371094 196.554688 502.558594 196.554688 495.457031 L 196.554688 365.421875 C 196.554688 358.316406 199.378906 351.507812 204.402344 346.484375 C 209.421875 341.460938 216.234375 338.640625 223.339844 338.640625 " clip-rule="nonzero"/></clipPath><clipPath id="eb917779b3"><path d="M 511.167969 55 L 565.039062 55 L 565.039062 240.199219 L 511.167969 240.199219 Z M 511.167969 55 " clip-rule="nonzero"/></clipPath><clipPath id="a90be62f82"><path d="M 538.257812 240.199219 C 531.152344 240.199219 524.339844 237.378906 519.316406 232.355469 C 514.296875 227.332031 511.472656 220.523438 511.472656 213.417969 L 511.472656 82.007812 C 511.472656 74.902344 514.296875 68.089844 519.316406 63.070312 C 524.339844 58.046875 531.152344 55.222656 538.257812 55.222656 C 545.359375 55.222656 552.171875 58.046875 557.195312 63.070312 C 562.214844 68.089844 565.039062 74.902344 565.039062 82.007812 L 565.039062 213.417969 C 565.039062 220.523438 562.214844 227.332031 557.195312 232.355469 C 552.171875 237.378906 545.359375 240.199219 538.257812 240.199219 " clip-rule="nonzero"/></clipPath><clipPath id="e3b0648444"><path d="M 196.554688 55.238281 L 250.425781 55.238281 L 250.425781 316 L 196.554688 316 Z M 196.554688 55.238281 " clip-rule="nonzero"/></clipPath><clipPath id="c0b04a8107"><path d="M 223.339844 55.238281 C 230.441406 55.238281 237.253906 58.058594 242.277344 63.082031 C 247.300781 68.105469 250.121094 74.917969 250.121094 82.019531 L 250.121094 288.945312 C 250.121094 296.046875 247.300781 302.859375 242.277344 307.882812 C 237.253906 312.90625 230.441406 315.726562 223.339844 315.726562 C 216.234375 315.726562 209.421875 312.90625 204.402344 307.882812 C 199.378906 302.859375 196.554688 296.046875 196.554688 288.945312 L 196.554688 82.019531 C 196.554688 74.917969 199.378906 68.105469 204.402344 63.082031 C 209.421875 58.058594 216.234375 55.238281 223.339844 55.238281 " clip-rule="nonzero"/></clipPath><clipPath id="5be84794fd"><path d="M 196.5625 262 L 566 262 L 566 315.71875 L 196.5625 315.71875 Z M 196.5625 262 " clip-rule="nonzero"/></clipPath><clipPath id="2824dd80e1"><path d="M 196.5625 288.921875 C 196.5625 281.816406 199.386719 275 204.410156 269.972656 C 209.4375 264.949219 216.25 262.125 223.359375 262.125 L 538.253906 262.125 C 545.363281 262.125 552.179688 264.949219 557.203125 269.972656 C 562.226562 275 565.050781 281.816406 565.050781 288.921875 C 565.050781 296.027344 562.226562 302.84375 557.203125 307.871094 C 552.179688 312.894531 545.363281 315.71875 538.253906 315.71875 L 223.359375 315.71875 C 216.25 315.71875 209.4375 312.894531 204.410156 307.871094 C 199.386719 302.84375 196.5625 296.027344 196.5625 288.921875 " clip-rule="nonzero"/></clipPath><clipPath id="d3ecb42a50"><path d="M 511.167969 264 L 565.039062 264 L 565.039062 522.230469 L 511.167969 522.230469 Z M 511.167969 264 " clip-rule="nonzero"/></clipPath><clipPath id="f02fa1fddf"><path d="M 538.257812 522.230469 C 531.152344 522.230469 524.339844 519.40625 519.316406 514.382812 C 514.296875 509.363281 511.472656 502.550781 511.472656 495.445312 L 511.472656 288.90625 C 511.472656 281.804688 514.296875 274.992188 519.316406 269.96875 C 524.339844 264.949219 531.152344 262.125 538.257812 262.125 C 545.359375 262.125 552.171875 264.949219 557.195312 269.96875 C 562.214844 274.992188 565.039062 281.804688 565.039062 288.90625 L 565.039062 495.445312 C 565.039062 502.550781 562.214844 509.363281 557.195312 514.382812 C 552.171875 519.40625 545.359375 522.230469 538.257812 522.230469 " clip-rule="nonzero"/></clipPath></defs><g clip-path="url(#789fd4b814)"><g clip-path="url(#490825dde7)"><path fill="#f1b617" d="M 565.035156 468.640625 L 565.035156 522.507812 L 193.929688 522.507812 L 193.929688 468.640625 Z M 565.035156 468.640625 " fill-opacity="1" fill-rule="nonzero"/></g></g><g clip-path="url(#4f1710c20d)"><g clip-path="url(#d4fc89a96c)"><path fill="#f1b617" d="M 196.5625 108.820312 L 196.5625 54.949219 L 567.667969 54.949219 L 567.667969 108.820312 Z M 196.5625 108.820312 " fill-opacity="1" fill-rule="nonzero"/></g></g><g clip-path="url(#889f8d42bc)"><g clip-path="url(#a7aa6da955)"><path fill="#ffffff" d="M 347.207031 9.519531 L 401.078125 9.519531 L 401.078125 566.175781 L 347.207031 566.175781 Z M 347.207031 9.519531 " fill-opacity="1" fill-rule="nonzero"/></g></g><g clip-path="url(#cb2e4cfc80)"><g clip-path="url(#e618b98d58)"><path fill="#f1b617" d="M 196.554688 338.640625 L 250.425781 338.640625 L 250.425781 524.191406 L 196.554688 524.191406 Z M 196.554688 338.640625 " fill-opacity="1" fill-rule="nonzero"/></g></g><g clip-path="url(#eb917779b3)"><g clip-path="url(#a90be62f82)"><path fill="#f1b617" d="M 565.039062 240.199219 L 511.167969 240.199219 L 511.167969 54.648438 L 565.039062 54.648438 Z M 565.039062 240.199219 " fill-opacity="1" fill-rule="nonzero"/></g></g><g clip-path="url(#e3b0648444)"><g clip-path="url(#c0b04a8107)"><path fill="#f1b617" d="M 196.554688 55.238281 L 250.425781 55.238281 L 250.425781 318.601562 L 196.554688 318.601562 Z M 196.554688 55.238281 " fill-opacity="1" fill-rule="nonzero"/></g></g><g clip-path="url(#5be84794fd)"><g clip-path="url(#2824dd80e1)"><path fill="#f1b617" d="M 196.5625 315.71875 L 196.5625 261.847656 L 567.667969 261.847656 L 567.667969 315.71875 Z M 196.5625 315.71875 " fill-opacity="1" fill-rule="nonzero"/></g></g><g clip-path="url(#d3ecb42a50)"><g clip-path="url(#f02fa1fddf)"><path fill="#f1b617" d="M 565.039062 522.230469 L 511.167969 522.230469 L 511.167969 264.847656 L 565.039062 264.847656 Z M 565.039062 522.230469 " fill-opacity="1" fill-rule="nonzero"/></g></g><g fill="#f1b617" fill-opacity="1"><g transform="translate(42.830473, 733.74127)"><g><path d="M 77.296875 -106.34375 C 78.742188 -106.082031 79.535156 -105.296875 79.671875 -103.984375 L 79.671875 -21.546875 C 79.398438 -20.097656 78.609375 -19.304688 77.296875 -19.171875 L 37.5625 -19.171875 C 35.976562 -19.171875 35.1875 -19.960938 35.1875 -21.546875 L 35.1875 -103.984375 C 35.1875 -105.554688 35.976562 -106.34375 37.5625 -106.34375 Z M 11.46875 -25.890625 C 11.46875 -8.234375 20.820312 0.988281 39.53125 1.78125 C 40.457031 1.78125 41.378906 1.78125 42.296875 1.78125 L 72.546875 1.78125 C 92.578125 0.851562 102.859375 -8.367188 103.390625 -25.890625 L 103.390625 -99.828125 C 103.117188 -118.015625 92.835938 -127.171875 72.546875 -127.296875 L 42.296875 -127.296875 C 21.867188 -127.035156 11.59375 -117.878906 11.46875 -99.828125 Z M 11.46875 -25.890625 "/></g></g></g><g fill="#f1b617" fill-opacity="1"><g transform="translate(157.674926, 733.74127)"><g><path d="M 50.203125 -98.640625 C 39.796875 -98.503906 33.671875 -94.023438 31.828125 -85.203125 L 30.046875 -96.859375 L 10.078125 -96.859375 L 10.28125 0 L 32.609375 0 L 32.421875 -76.703125 C 32.421875 -78.285156 33.210938 -79.078125 34.796875 -79.078125 L 57.71875 -79.078125 L 57.71875 -98.640625 Z M 50.203125 -98.640625 "/></g></g></g><g fill="#f1b617" fill-opacity="1"><g transform="translate(214.998319, 733.74127)"><g><path d="M 67.40625 1.78125 L 67.40625 -17.203125 L 33.40625 -17.203125 C 31.957031 -17.460938 31.164062 -18.25 31.03125 -19.5625 L 31.03125 -77.484375 C 31.300781 -78.804688 32.09375 -79.535156 33.40625 -79.671875 L 67.40625 -79.671875 L 67.40625 -98.640625 L 37.953125 -98.640625 C 23.191406 -98.640625 14.035156 -94.222656 10.484375 -85.390625 C 9.160156 -81.835938 8.5 -77.554688 8.5 -72.546875 L 8.5 -24.515625 C 8.5 -11.734375 13.113281 -3.691406 22.34375 -0.390625 C 24.976562 0.523438 28.070312 1.179688 31.625 1.578125 L 27.875 19.5625 L 44.078125 19.5625 C 44.867188 19.832031 45.332031 20.296875 45.46875 20.953125 L 45.46875 28.46875 C 45.207031 29.257812 44.742188 29.71875 44.078125 29.84375 L 25.703125 29.84375 L 25.703125 42.296875 L 41.515625 42.296875 C 53.109375 42.035156 58.972656 36.765625 59.109375 26.484375 L 59.109375 21.15625 C 59.109375 13.644531 55.019531 9.492188 46.84375 8.703125 C 45.664062 8.566406 44.484375 8.5 43.296875 8.5 L 41.3125 8.5 L 42.5 1.78125 Z M 67.40625 1.78125 "/></g></g></g><g fill="#f1b617" fill-opacity="1"><g transform="translate(285.565393, 733.74127)"><g><path d="M 54.5625 -16.40625 L 30.046875 -16.40625 C 28.460938 -16.40625 27.671875 -17.195312 27.671875 -18.78125 L 27.671875 -39.140625 C 27.929688 -40.585938 28.722656 -41.378906 30.046875 -41.515625 L 54.5625 -41.515625 Z M 36.96875 1.78125 C 47.25 1.644531 53.3125 -3.03125 55.15625 -12.25 L 56.9375 0 L 77.09375 0 L 77.09375 -71.75 C 77.09375 -84.144531 72.941406 -91.921875 64.640625 -95.078125 C 60.816406 -96.398438 55.875 -97.0625 49.8125 -97.0625 L 11.859375 -97.0625 L 11.859375 -78.28125 L 52.1875 -78.28125 C 53.632812 -78.019531 54.425781 -77.226562 54.5625 -75.90625 L 54.5625 -57.53125 L 32.21875 -57.53125 C 19.695312 -57.53125 11.722656 -54.429688 8.296875 -48.234375 C 6.453125 -44.671875 5.53125 -39.796875 5.53125 -33.609375 L 5.53125 -20.953125 C 5.53125 -9.359375 9.679688 -2.242188 17.984375 0.390625 C 21.148438 1.316406 24.972656 1.78125 29.453125 1.78125 Z M 36.96875 1.78125 "/></g></g></g><g fill="#ffffff" fill-opacity="1"><g transform="translate(369.355955, 733.74127)"><g><path d="M 98.4375 -26.484375 L 98.4375 -42.890625 C 98.3125 -53.828125 94.03125 -60.945312 85.59375 -64.25 C 92.050781 -68.195312 95.347656 -74.65625 95.484375 -83.625 L 95.484375 -99.234375 C 95.210938 -117.554688 85.257812 -126.582031 65.625 -126.3125 L 13.84375 -125.53125 L 13.84375 0 L 68.203125 0.796875 C 84.273438 1.054688 93.957031 -5.003906 97.25 -17.390625 C 98.039062 -20.160156 98.4375 -23.191406 98.4375 -26.484375 Z M 75.3125 -55.546875 C 76.894531 -55.285156 77.753906 -54.429688 77.890625 -52.984375 L 77.890625 -19.375 C 77.617188 -17.789062 76.757812 -16.929688 75.3125 -16.796875 L 34 -16.796875 L 34 -55.546875 Z M 72.34375 -109.125 C 73.925781 -108.851562 74.785156 -107.992188 74.921875 -106.546875 L 74.921875 -74.71875 C 74.660156 -73.132812 73.800781 -72.28125 72.34375 -72.15625 L 34 -72.15625 L 34 -109.125 Z M 72.34375 -109.125 "/></g></g></g><g fill="#ffffff" fill-opacity="1"><g transform="translate(479.06107, 733.74127)"><g><path d="M 75.90625 1.1875 L 75.90625 -15.21875 L 30.84375 -15.21875 C 29.519531 -15.476562 28.789062 -16.203125 28.65625 -17.390625 L 28.65625 -37.359375 L 78.28125 -37.359375 L 78.28125 -75.125 C 78.28125 -86.0625 75.117188 -92.976562 68.796875 -95.875 C 64.972656 -97.582031 59.765625 -98.4375 53.171875 -98.4375 L 33.796875 -98.4375 C 22.460938 -98.4375 15.21875 -95.671875 12.0625 -90.140625 C 10.082031 -86.578125 9.09375 -81.570312 9.09375 -75.125 L 9.09375 -23.125 C 9.09375 -11.132812 13.441406 -3.691406 22.140625 -0.796875 C 25.960938 0.523438 30.707031 1.1875 36.375 1.1875 Z M 28.65625 -80.453125 C 28.925781 -81.773438 29.65625 -82.5 30.84375 -82.625 L 56.9375 -82.625 C 58.25 -82.363281 58.972656 -81.640625 59.109375 -80.453125 L 59.109375 -51.390625 L 28.65625 -51.390625 Z M 28.65625 -80.453125 "/></g></g></g><g fill="#ffffff" fill-opacity="1"><g transform="translate(565.243827, 733.74127)"><g><path d="M 75.90625 1.1875 L 75.90625 -15.21875 L 30.84375 -15.21875 C 29.519531 -15.476562 28.789062 -16.203125 28.65625 -17.390625 L 28.65625 -37.359375 L 78.28125 -37.359375 L 78.28125 -75.125 C 78.28125 -86.0625 75.117188 -92.976562 68.796875 -95.875 C 64.972656 -97.582031 59.765625 -98.4375 53.171875 -98.4375 L 33.796875 -98.4375 C 22.460938 -98.4375 15.21875 -95.671875 12.0625 -90.140625 C 10.082031 -86.578125 9.09375 -81.570312 9.09375 -75.125 L 9.09375 -23.125 C 9.09375 -11.132812 13.441406 -3.691406 22.140625 -0.796875 C 25.960938 0.523438 30.707031 1.1875 36.375 1.1875 Z M 28.65625 -80.453125 C 28.925781 -81.773438 29.65625 -82.5 30.84375 -82.625 L 56.9375 -82.625 C 58.25 -82.363281 58.972656 -81.640625 59.109375 -80.453125 L 59.109375 -51.390625 L 28.65625 -51.390625 Z M 28.65625 -80.453125 "/></g></g></g><g fill="#ffffff" fill-opacity="1"><g transform="translate(651.426584, 733.74127)"><g><path d="M 46.84375 -98.4375 C 37.226562 -98.3125 31.363281 -94.425781 29.25 -86.78125 L 27.671875 -96.859375 L 10.484375 -96.859375 L 10.671875 0 L 30.046875 0 L 29.84375 -79.46875 C 30.113281 -80.65625 30.84375 -81.3125 32.03125 -81.4375 L 55.9375 -81.4375 L 55.9375 -98.4375 Z M 46.84375 -98.4375 "/></g></g></g></svg>