<svg xmlns="http://www.w3.org/2000/svg" xmlns:xlink="http://www.w3.org/1999/xlink" width="1080" zoomAndPan="magnify" viewBox="0 0 810 299.999988" height="400" preserveAspectRatio="xMidYMid meet" version="1.0"><defs><g/><clipPath id="6f26e23165"><path d="M 7 224.847656 L 160.90625 224.847656 L 160.90625 247.285156 L 7 247.285156 Z M 7 224.847656 " clip-rule="nonzero"/></clipPath><clipPath id="fe3a4e66d3"><path d="M 160.90625 236.007812 C 160.90625 238.96875 159.730469 241.808594 157.636719 243.902344 C 155.546875 245.996094 152.707031 247.171875 149.746094 247.171875 L 18.589844 247.171875 C 15.632812 247.171875 12.792969 245.996094 10.699219 243.902344 C 8.605469 241.808594 7.429688 238.96875 7.429688 236.007812 C 7.429688 233.050781 8.605469 230.210938 10.699219 228.117188 C 12.792969 226.023438 15.632812 224.847656 18.589844 224.847656 L 149.746094 224.847656 C 152.707031 224.847656 155.546875 226.023438 157.636719 228.117188 C 159.730469 230.210938 160.90625 233.050781 160.90625 236.007812 " clip-rule="nonzero"/></clipPath><clipPath id="22b9ac268f"><path d="M 7.4375 52.546875 L 161 52.546875 L 161 74.984375 L 7.4375 74.984375 Z M 7.4375 52.546875 " clip-rule="nonzero"/></clipPath><clipPath id="ab6f16d861"><path d="M 7.4375 63.824219 C 7.4375 60.863281 8.613281 58.023438 10.707031 55.929688 C 12.796875 53.839844 15.636719 52.664062 18.597656 52.664062 L 149.753906 52.664062 C 152.710938 52.664062 155.550781 53.839844 157.644531 55.929688 C 159.738281 58.023438 160.914062 60.863281 160.914062 63.824219 C 160.914062 66.78125 159.738281 69.621094 157.644531 71.714844 C 155.550781 73.808594 152.710938 74.984375 149.753906 74.984375 L 18.597656 74.984375 C 15.636719 74.984375 12.796875 73.808594 10.707031 71.714844 C 8.613281 69.621094 7.4375 66.78125 7.4375 63.824219 " clip-rule="nonzero"/></clipPath><clipPath id="923eaa9eaa"><path d="M 70.179688 33.625 L 92.617188 33.625 L 92.617188 266 L 70.179688 266 Z M 70.179688 33.625 " clip-rule="nonzero"/></clipPath><clipPath id="d6cab75c60"><path d="M 81.335938 33.625 C 84.292969 33.625 87.132812 34.800781 89.222656 36.890625 C 91.316406 38.984375 92.488281 41.820312 92.488281 44.777344 L 92.488281 255.222656 C 92.488281 258.179688 91.316406 261.015625 89.222656 263.109375 C 87.132812 265.199219 84.292969 266.375 81.335938 266.375 C 78.375 266.375 75.539062 265.199219 73.449219 263.109375 C 71.355469 261.015625 70.179688 258.179688 70.179688 255.222656 L 70.179688 44.777344 C 70.179688 41.820312 71.355469 38.984375 73.449219 36.890625 C 75.539062 34.800781 78.375 33.625 81.335938 33.625 " clip-rule="nonzero"/></clipPath><clipPath id="6b60e82d1c"><path d="M 7.433594 170.703125 L 29.871094 170.703125 L 29.871094 247.988281 L 7.433594 247.988281 Z M 7.433594 170.703125 " clip-rule="nonzero"/></clipPath><clipPath id="5af5fa2d28"><path d="M 18.589844 170.703125 C 21.546875 170.703125 24.382812 171.878906 26.476562 173.96875 C 28.570312 176.0625 29.742188 178.898438 29.742188 181.859375 L 29.742188 236.019531 C 29.742188 238.976562 28.570312 241.8125 26.476562 243.90625 C 24.382812 245.996094 21.546875 247.171875 18.589844 247.171875 C 15.628906 247.171875 12.792969 245.996094 10.699219 243.90625 C 8.609375 241.8125 7.433594 238.976562 7.433594 236.019531 L 7.433594 181.859375 C 7.433594 178.898438 8.609375 176.0625 10.699219 173.96875 C 12.792969 171.878906 15.628906 170.703125 18.589844 170.703125 " clip-rule="nonzero"/></clipPath><clipPath id="31b485e362"><path d="M 138.472656 52.421875 L 160.90625 52.421875 L 160.90625 129.703125 L 138.472656 129.703125 Z M 138.472656 52.421875 " clip-rule="nonzero"/></clipPath><clipPath id="2d566f5fff"><path d="M 149.753906 129.703125 C 146.792969 129.703125 143.957031 128.527344 141.867188 126.4375 C 139.773438 124.34375 138.597656 121.507812 138.597656 118.550781 L 138.597656 63.816406 C 138.597656 60.855469 139.773438 58.019531 141.867188 55.925781 C 143.957031 53.835938 146.792969 52.660156 149.753906 52.660156 C 152.710938 52.660156 155.546875 53.835938 157.640625 55.925781 C 159.734375 58.019531 160.90625 60.855469 160.90625 63.816406 L 160.90625 118.550781 C 160.90625 121.507812 159.734375 124.34375 157.640625 126.4375 C 155.546875 128.527344 152.710938 129.703125 149.753906 129.703125 " clip-rule="nonzero"/></clipPath><clipPath id="4cf286ec28"><path d="M 7.433594 52.664062 L 29.871094 52.664062 L 29.871094 162 L 7.433594 162 Z M 7.433594 52.664062 " clip-rule="nonzero"/></clipPath><clipPath id="482c811ff6"><path d="M 18.589844 52.664062 C 21.546875 52.664062 24.382812 53.839844 26.476562 55.933594 C 28.570312 58.023438 29.742188 60.863281 29.742188 63.820312 L 29.742188 150.003906 C 29.742188 152.964844 28.570312 155.800781 26.476562 157.894531 C 24.382812 159.984375 21.546875 161.160156 18.589844 161.160156 C 15.628906 161.160156 12.792969 159.984375 10.699219 157.894531 C 8.609375 155.800781 7.433594 152.964844 7.433594 150.003906 L 7.433594 63.820312 C 7.433594 60.863281 8.609375 58.023438 10.699219 55.933594 C 12.792969 53.839844 15.628906 52.664062 18.589844 52.664062 " clip-rule="nonzero"/></clipPath><clipPath id="aa36ce9bc4"><path d="M 7.4375 138.71875 L 161 138.71875 L 161 161.15625 L 7.4375 161.15625 Z M 7.4375 138.71875 " clip-rule="nonzero"/></clipPath><clipPath id="f1a5e9ba2a"><path d="M 7.4375 149.996094 C 7.4375 147.035156 8.613281 144.199219 10.707031 142.105469 C 12.796875 140.011719 15.636719 138.835938 18.597656 138.835938 L 149.753906 138.835938 C 152.710938 138.835938 155.550781 140.011719 157.644531 142.105469 C 159.738281 144.199219 160.914062 147.035156 160.914062 149.996094 C 160.914062 152.957031 159.738281 155.796875 157.644531 157.886719 C 155.550781 159.980469 152.710938 161.15625 149.753906 161.15625 L 18.597656 161.15625 C 15.636719 161.15625 12.796875 159.980469 10.707031 157.886719 C 8.613281 155.796875 7.4375 152.957031 7.4375 149.996094 " clip-rule="nonzero"/></clipPath><clipPath id="6b505902c6"><path d="M 138.472656 139 L 160.90625 139 L 160.90625 247.167969 L 138.472656 247.167969 Z M 138.472656 139 " clip-rule="nonzero"/></clipPath><clipPath id="c5be7ae3bc"><path d="M 149.753906 247.167969 C 146.792969 247.167969 143.957031 245.992188 141.867188 243.902344 C 139.773438 241.808594 138.597656 238.972656 138.597656 236.015625 L 138.597656 149.992188 C 138.597656 147.03125 139.773438 144.195312 141.867188 142.101562 C 143.957031 140.011719 146.792969 138.835938 149.753906 138.835938 C 152.710938 138.835938 155.546875 140.011719 157.640625 142.101562 C 159.734375 144.195312 160.90625 147.03125 160.90625 149.992188 L 160.90625 236.015625 C 160.90625 238.972656 159.734375 241.808594 157.640625 243.902344 C 155.546875 245.992188 152.710938 247.167969 149.753906 247.167969 " clip-rule="nonzero"/></clipPath></defs><g clip-path="url(#6f26e23165)"><g clip-path="url(#fe3a4e66d3)"><path fill="#000000" d="M 160.90625 224.847656 L 160.90625 247.285156 L 6.339844 247.285156 L 6.339844 224.847656 Z M 160.90625 224.847656 " fill-opacity="1" fill-rule="nonzero"/></g></g><g clip-path="url(#22b9ac268f)"><g clip-path="url(#ab6f16d861)"><path fill="#000000" d="M 7.4375 74.984375 L 7.4375 52.546875 L 162.003906 52.546875 L 162.003906 74.984375 Z M 7.4375 74.984375 " fill-opacity="1" fill-rule="nonzero"/></g></g><g clip-path="url(#923eaa9eaa)"><g clip-path="url(#d6cab75c60)"><path fill="#f1b617" d="M 70.179688 33.625 L 92.617188 33.625 L 92.617188 265.472656 L 70.179688 265.472656 Z M 70.179688 33.625 " fill-opacity="1" fill-rule="nonzero"/></g></g><g clip-path="url(#6b60e82d1c)"><g clip-path="url(#5af5fa2d28)"><path fill="#000000" d="M 7.433594 170.703125 L 29.871094 170.703125 L 29.871094 247.988281 L 7.433594 247.988281 Z M 7.433594 170.703125 " fill-opacity="1" fill-rule="nonzero"/></g></g><g clip-path="url(#31b485e362)"><g clip-path="url(#2d566f5fff)"><path fill="#000000" d="M 160.90625 129.703125 L 138.472656 129.703125 L 138.472656 52.421875 L 160.90625 52.421875 Z M 160.90625 129.703125 " fill-opacity="1" fill-rule="nonzero"/></g></g><g clip-path="url(#4cf286ec28)"><g clip-path="url(#482c811ff6)"><path fill="#000000" d="M 7.433594 52.664062 L 29.871094 52.664062 L 29.871094 162.359375 L 7.433594 162.359375 Z M 7.433594 52.664062 " fill-opacity="1" fill-rule="nonzero"/></g></g><g clip-path="url(#aa36ce9bc4)"><g clip-path="url(#f1a5e9ba2a)"><path fill="#000000" d="M 7.4375 161.15625 L 7.4375 138.71875 L 162.003906 138.71875 L 162.003906 161.15625 Z M 7.4375 161.15625 " fill-opacity="1" fill-rule="nonzero"/></g></g><g clip-path="url(#6b505902c6)"><g clip-path="url(#c5be7ae3bc)"><path fill="#000000" d="M 160.90625 247.167969 L 138.472656 247.167969 L 138.472656 139.96875 L 160.90625 139.96875 Z M 160.90625 247.167969 " fill-opacity="1" fill-rule="nonzero"/></g></g><g fill="#000000" fill-opacity="1"><g transform="translate(188.586006, 204.757037)"><g><path d="M 71.4375 -98.296875 C 72.769531 -98.046875 73.5 -97.3125 73.625 -96.09375 L 73.625 -19.90625 C 73.382812 -18.570312 72.65625 -17.84375 71.4375 -17.71875 L 34.71875 -17.71875 C 33.25 -17.71875 32.515625 -18.445312 32.515625 -19.90625 L 32.515625 -96.09375 C 32.515625 -97.5625 33.25 -98.296875 34.71875 -98.296875 Z M 10.59375 -23.9375 C 10.59375 -7.613281 19.238281 0.910156 36.53125 1.640625 C 37.382812 1.640625 38.238281 1.640625 39.09375 1.640625 L 67.046875 1.640625 C 85.554688 0.785156 95.054688 -7.738281 95.546875 -23.9375 L 95.546875 -92.265625 C 95.304688 -109.066406 85.804688 -117.53125 67.046875 -117.65625 L 39.09375 -117.65625 C 20.21875 -117.414062 10.71875 -108.953125 10.59375 -92.265625 Z M 10.59375 -23.9375 "/></g></g></g><g fill="#000000" fill-opacity="1"><g transform="translate(294.724904, 204.757037)"><g><path d="M 46.40625 -91.15625 C 36.78125 -91.039062 31.113281 -86.898438 29.40625 -78.734375 L 27.765625 -89.515625 L 9.3125 -89.515625 L 9.5 0 L 30.140625 0 L 29.96875 -70.890625 C 29.96875 -72.347656 30.695312 -73.078125 32.15625 -73.078125 L 53.34375 -73.078125 L 53.34375 -91.15625 Z M 46.40625 -91.15625 "/></g></g></g><g fill="#000000" fill-opacity="1"><g transform="translate(347.703012, 204.757037)"><g><path d="M 62.296875 1.640625 L 62.296875 -15.890625 L 30.875 -15.890625 C 29.53125 -16.140625 28.800781 -16.875 28.6875 -18.09375 L 28.6875 -71.609375 C 28.925781 -72.828125 29.65625 -73.5 30.875 -73.625 L 62.296875 -73.625 L 62.296875 -91.15625 L 35.078125 -91.15625 C 21.429688 -91.15625 12.96875 -87.078125 9.6875 -78.921875 C 8.46875 -75.628906 7.859375 -71.671875 7.859375 -67.046875 L 7.859375 -22.65625 C 7.859375 -10.84375 12.117188 -3.410156 20.640625 -0.359375 C 23.078125 0.484375 25.941406 1.09375 29.234375 1.46875 L 25.765625 18.09375 L 40.734375 18.09375 C 41.472656 18.332031 41.898438 18.753906 42.015625 19.359375 L 42.015625 26.3125 C 41.773438 27.039062 41.347656 27.46875 40.734375 27.59375 L 23.75 27.59375 L 23.75 39.09375 L 38.359375 39.09375 C 49.078125 38.851562 54.5 33.984375 54.625 24.484375 L 54.625 19.546875 C 54.625 12.609375 50.847656 8.769531 43.296875 8.03125 C 42.203125 7.914062 41.109375 7.859375 40.015625 7.859375 L 38.1875 7.859375 L 39.28125 1.640625 Z M 62.296875 1.640625 "/></g></g></g><g fill="#000000" fill-opacity="1"><g transform="translate(412.920889, 204.757037)"><g><path d="M 50.421875 -15.15625 L 27.765625 -15.15625 C 26.304688 -15.15625 25.578125 -15.890625 25.578125 -17.359375 L 25.578125 -36.171875 C 25.816406 -37.515625 26.546875 -38.242188 27.765625 -38.359375 L 50.421875 -38.359375 Z M 34.15625 1.640625 C 43.65625 1.523438 49.257812 -2.796875 50.96875 -11.328125 L 52.609375 0 L 71.25 0 L 71.25 -66.3125 C 71.25 -77.757812 67.410156 -84.945312 59.734375 -87.875 C 56.203125 -89.09375 51.632812 -89.703125 46.03125 -89.703125 L 10.96875 -89.703125 L 10.96875 -72.34375 L 48.234375 -72.34375 C 49.566406 -72.101562 50.296875 -71.375 50.421875 -70.15625 L 50.421875 -53.15625 L 29.78125 -53.15625 C 18.207031 -53.15625 10.835938 -50.296875 7.671875 -44.578125 C 5.960938 -41.285156 5.109375 -36.78125 5.109375 -31.0625 L 5.109375 -19.359375 C 5.109375 -8.640625 8.945312 -2.066406 16.625 0.359375 C 19.550781 1.210938 23.082031 1.640625 27.21875 1.640625 Z M 34.15625 1.640625 "/></g></g></g><g fill="#f1b617" fill-opacity="1"><g transform="translate(490.34544, 204.757037)"><g><path d="M 90.984375 -24.484375 L 90.984375 -39.640625 C 90.859375 -49.753906 86.898438 -56.332031 79.109375 -59.375 C 85.078125 -63.03125 88.117188 -69 88.234375 -77.28125 L 88.234375 -91.71875 C 87.992188 -108.644531 78.800781 -116.984375 60.65625 -116.734375 L 12.78125 -116.015625 L 12.78125 0 L 63.03125 0.734375 C 77.882812 0.972656 86.835938 -4.628906 89.890625 -16.078125 C 90.617188 -18.628906 90.984375 -21.429688 90.984375 -24.484375 Z M 69.609375 -51.34375 C 71.066406 -51.09375 71.859375 -50.300781 71.984375 -48.96875 L 71.984375 -17.90625 C 71.734375 -16.445312 70.941406 -15.65625 69.609375 -15.53125 L 31.421875 -15.53125 L 31.421875 -51.34375 Z M 66.859375 -100.84375 C 68.328125 -100.601562 69.117188 -99.8125 69.234375 -98.46875 L 69.234375 -69.0625 C 68.992188 -67.59375 68.203125 -66.800781 66.859375 -66.6875 L 31.421875 -66.6875 L 31.421875 -100.84375 Z M 66.859375 -100.84375 "/></g></g></g><g fill="#f1b617" fill-opacity="1"><g transform="translate(591.734577, 204.757037)"><g><path d="M 70.15625 1.09375 L 70.15625 -14.0625 L 28.5 -14.0625 C 27.28125 -14.3125 26.609375 -14.984375 26.484375 -16.078125 L 26.484375 -34.53125 L 72.34375 -34.53125 L 72.34375 -69.421875 C 72.34375 -79.535156 69.421875 -85.929688 63.578125 -88.609375 C 60.046875 -90.191406 55.234375 -90.984375 49.140625 -90.984375 L 31.234375 -90.984375 C 20.765625 -90.984375 14.066406 -88.425781 11.140625 -83.3125 C 9.316406 -80.019531 8.40625 -75.390625 8.40625 -69.421875 L 8.40625 -21.375 C 8.40625 -10.289062 12.425781 -3.410156 20.46875 -0.734375 C 24 0.484375 28.378906 1.09375 33.609375 1.09375 Z M 26.484375 -74.359375 C 26.734375 -75.578125 27.40625 -76.242188 28.5 -76.359375 L 52.609375 -76.359375 C 53.828125 -76.117188 54.5 -75.453125 54.625 -74.359375 L 54.625 -47.5 L 26.484375 -47.5 Z M 26.484375 -74.359375 "/></g></g></g><g fill="#f1b617" fill-opacity="1"><g transform="translate(671.384422, 204.757037)"><g><path d="M 70.15625 1.09375 L 70.15625 -14.0625 L 28.5 -14.0625 C 27.28125 -14.3125 26.609375 -14.984375 26.484375 -16.078125 L 26.484375 -34.53125 L 72.34375 -34.53125 L 72.34375 -69.421875 C 72.34375 -79.535156 69.421875 -85.929688 63.578125 -88.609375 C 60.046875 -90.191406 55.234375 -90.984375 49.140625 -90.984375 L 31.234375 -90.984375 C 20.765625 -90.984375 14.066406 -88.425781 11.140625 -83.3125 C 9.316406 -80.019531 8.40625 -75.390625 8.40625 -69.421875 L 8.40625 -21.375 C 8.40625 -10.289062 12.425781 -3.410156 20.46875 -0.734375 C 24 0.484375 28.378906 1.09375 33.609375 1.09375 Z M 26.484375 -74.359375 C 26.734375 -75.578125 27.40625 -76.242188 28.5 -76.359375 L 52.609375 -76.359375 C 53.828125 -76.117188 54.5 -75.453125 54.625 -74.359375 L 54.625 -47.5 L 26.484375 -47.5 Z M 26.484375 -74.359375 "/></g></g></g><g fill="#f1b617" fill-opacity="1"><g transform="translate(751.034267, 204.757037)"><g><path d="M 43.296875 -90.984375 C 34.410156 -90.859375 28.988281 -87.265625 27.03125 -80.203125 L 25.578125 -89.515625 L 9.6875 -89.515625 L 9.859375 0 L 27.765625 0 L 27.59375 -73.4375 C 27.832031 -74.539062 28.5 -75.148438 29.59375 -75.265625 L 51.703125 -75.265625 L 51.703125 -90.984375 Z M 43.296875 -90.984375 "/></g></g></g></svg>